{"glyphs":{"0":{"ha":833,"x_min":0,"x_max":0,"o":"m 417 972 b 772 479 603 972 772 740 b 417 -14 772 218 603 -14 b 61 479 231 -14 61 218 b 417 972 61 740 231 972 m 417 46 b 635 479 542 46 635 258 b 417 913 635 701 542 913 b 199 479 292 913 199 701 b 417 46 199 258 292 46 "},"1":{"ha":600,"x_min":0,"x_max":0,"o":"m 376 61 l 558 61 l 558 0 l 69 0 l 69 61 l 251 61 l 251 789 l 14 789 l 376 972 "},"2":{"ha":732,"x_min":0,"x_max":0,"o":"m 17 0 b 507 654 260 239 507 469 b 313 853 507 772 439 853 b 47 672 186 853 113 771 b 379 972 90 843 211 972 b 636 707 535 972 636 856 b 229 146 636 517 446 342 l 229 125 l 714 125 l 614 0 "},"3":{"ha":681,"x_min":0,"x_max":0,"o":"m 268 40 b 508 268 378 56 508 139 b 140 479 508 404 363 479 b 449 743 325 578 449 631 b 304 867 449 824 390 867 b 72 739 210 867 126 804 b 369 972 106 853 217 972 b 581 797 494 972 581 894 b 368 569 581 686 478 622 l 368 553 b 636 332 525 524 636 456 b 203 -14 636 150 424 -14 b 47 92 110 -14 47 31 b 107 179 47 125 69 163 l 268 40 "},"4":{"ha":879,"x_min":0,"x_max":0,"o":"m 325 0 l 325 61 l 468 61 l 468 311 l 31 311 l 588 972 l 588 381 l 865 381 l 808 311 l 588 311 l 588 61 l 731 61 l 731 0 m 468 743 l 160 381 l 468 381 "},"5":{"ha":693,"x_min":0,"x_max":0,"o":"m 193 619 b 617 354 422 642 617 542 b 193 -14 617 149 414 -14 b 42 92 101 -14 42 31 b 101 179 42 125 65 163 l 260 43 b 501 290 371 60 501 133 b 125 511 501 447 382 536 l 194 958 l 618 958 l 554 833 l 224 833 l 193 619 "},"6":{"ha":785,"x_min":0,"x_max":0,"o":"m 403 -14 b 69 364 215 -14 69 151 b 763 972 69 660 342 953 b 235 511 490 879 301 728 l 263 511 b 440 572 311 544 364 572 b 713 297 603 572 713 446 b 403 -14 713 128 581 -14 m 208 328 b 408 42 208 165 286 42 b 585 256 513 42 585 131 b 347 496 585 404 476 496 b 221 458 296 496 250 476 b 208 328 213 417 208 374 "},"7":{"ha":729,"x_min":0,"x_max":0,"o":"m 193 0 l 588 833 l 17 833 l 81 958 l 710 958 l 294 0 "},"8":{"ha":771,"x_min":0,"x_max":0,"o":"m 708 256 b 386 -14 708 121 568 -14 b 63 236 210 -14 63 99 b 278 460 63 350 156 421 l 278 489 b 103 715 183 546 103 611 b 389 972 103 857 228 972 b 682 738 553 972 682 874 b 497 526 682 631 603 571 l 497 503 b 708 256 607 440 708 371 m 219 757 b 447 531 219 656 331 594 b 563 744 515 583 563 650 b 389 918 563 847 494 918 b 219 757 283 918 219 847 m 188 239 b 392 39 188 121 283 39 b 579 221 504 39 579 118 b 329 458 579 329 453 390 b 188 239 233 403 188 339 "},"9":{"ha":785,"x_min":0,"x_max":0,"o":"m 382 972 b 715 594 569 972 715 807 b 22 -14 715 299 443 6 b 550 447 294 79 483 231 l 522 447 b 344 386 474 414 421 386 b 72 661 182 386 72 513 b 382 972 72 831 204 972 m 576 631 b 376 917 576 793 499 917 b 200 703 272 917 200 828 b 438 463 200 554 308 463 b 564 500 489 463 535 482 b 576 631 572 542 576 585 "}," ":{"ha":278,"x_min":0,"x_max":0,"o":""}," ":{"ha":278,"x_min":0,"x_max":0,"o":""},"A":{"ha":1075,"x_min":0,"x_max":0,"o":"m 565 958 l 932 61 l 1047 61 l 1047 0 l 618 0 l 618 61 l 789 61 l 668 363 l 338 363 l 215 61 l 386 61 l 386 0 l 28 0 l 28 61 l 143 61 l 471 853 l 429 958 m 643 424 l 504 772 l 363 424 "},"B":{"ha":919,"x_min":0,"x_max":0,"o":"m 415 958 b 781 728 635 958 781 883 b 543 506 781 615 675 526 b 851 268 675 497 851 422 b 469 0 851 110 696 0 l 47 0 l 47 61 l 190 61 l 190 897 l 47 897 l 47 958 m 324 897 l 324 521 l 403 521 b 646 714 532 521 646 589 b 401 897 646 844 544 897 m 457 61 b 713 269 606 61 713 129 b 446 463 713 413 579 463 l 324 463 l 324 61 "},"C":{"ha":947,"x_min":0,"x_max":0,"o":"m 64 457 b 546 972 64 767 310 972 b 785 900 653 972 729 938 l 878 972 l 878 660 b 532 906 796 790 699 906 b 196 518 360 906 196 753 b 590 92 196 243 388 92 b 906 228 724 92 821 142 b 532 -14 858 97 717 -14 b 64 457 285 -14 64 168 "},"D":{"ha":1096,"x_min":0,"x_max":0,"o":"m 410 958 b 1032 506 769 958 1032 792 b 424 0 1032 200 764 0 l 47 0 l 47 61 l 190 61 l 190 897 l 47 897 l 47 958 l 410 958 m 324 897 l 324 61 l 401 61 b 882 504 700 61 882 239 b 399 897 882 754 699 897 "},"E":{"ha":908,"x_min":0,"x_max":0,"o":"m 638 669 l 638 310 l 528 460 l 324 460 l 324 61 l 672 61 l 869 296 l 811 0 l 47 0 l 47 61 l 190 61 l 190 897 l 47 897 l 47 958 l 713 958 l 788 999 l 788 704 l 644 897 l 324 897 l 324 521 l 528 521 "},"F":{"ha":847,"x_min":0,"x_max":0,"o":"m 638 669 l 638 310 l 528 460 l 324 460 l 324 61 l 501 61 l 501 0 l 47 0 l 47 61 l 190 61 l 190 897 l 47 897 l 47 958 l 713 958 l 788 999 l 788 704 l 644 897 l 324 897 l 324 521 l 528 521 "},"G":{"ha":1075,"x_min":0,"x_max":0,"o":"m 618 363 l 618 424 l 1035 424 l 1035 363 l 906 363 l 906 133 l 997 133 b 590 -14 910 42 763 -14 b 71 467 315 -14 71 165 b 561 972 71 772 325 972 b 824 900 674 972 764 938 l 921 972 l 921 660 b 557 906 838 792 732 906 b 219 503 368 906 219 747 b 638 56 219 224 424 56 b 775 75 686 56 736 61 l 775 363 "},"H":{"ha":1194,"x_min":0,"x_max":0,"o":"m 467 958 l 467 897 l 324 897 l 324 521 l 871 521 l 871 897 l 728 897 l 728 958 l 1147 958 l 1147 897 l 1004 897 l 1004 61 l 1147 61 l 1147 0 l 728 0 l 728 61 l 871 61 l 871 460 l 324 460 l 324 61 l 467 61 l 467 0 l 47 0 l 47 61 l 190 61 l 190 897 l 47 897 l 47 958 "},"I":{"ha":514,"x_min":0,"x_max":0,"o":"m 467 958 l 467 897 l 324 897 l 324 61 l 467 61 l 467 0 l 47 0 l 47 61 l 190 61 l 190 897 l 47 897 l 47 958 "},"J":{"ha":514,"x_min":0,"x_max":0,"o":"m 190 897 l 47 897 l 47 958 l 467 958 l 467 897 l 324 897 l 324 46 b -17 -319 271 -106 100 -319 b -103 -239 -69 -319 -103 -283 b -58 -158 -103 -210 -89 -176 l 90 -214 b 190 67 140 -168 190 -68 "},"K":{"ha":1006,"x_min":0,"x_max":0,"o":"m 467 958 l 467 897 l 324 897 l 324 536 l 375 536 l 761 897 l 614 897 l 614 958 l 979 958 l 979 897 l 851 897 l 465 542 l 1000 0 l 822 0 l 324 515 l 324 61 l 467 61 l 467 0 l 47 0 l 47 61 l 190 61 l 190 897 l 47 897 l 47 958 "},"L":{"ha":876,"x_min":0,"x_max":0,"o":"m 47 897 l 47 958 l 467 958 l 467 897 l 324 897 l 324 61 l 658 61 l 856 296 l 797 0 l 47 0 l 47 61 l 190 61 l 190 897 "},"M":{"ha":1336,"x_min":0,"x_max":0,"o":"m 971 904 l 638 -57 l 299 904 l 235 61 l 392 61 l 392 0 l 33 0 l 33 61 l 163 61 l 233 897 l 107 897 l 107 958 l 421 958 l 668 221 l 924 958 l 1229 958 l 1229 897 l 1103 897 l 1174 61 l 1303 61 l 1303 0 l 888 0 l 888 61 l 1044 61 "},"N":{"ha":1075,"x_min":0,"x_max":0,"o":"m 25 0 l 25 61 l 168 61 l 168 796 l 26 958 l 196 958 l 832 217 l 832 897 l 689 897 l 689 958 l 1047 958 l 1047 897 l 904 897 l 904 -46 l 240 714 l 240 61 l 383 61 l 383 0 "},"O":{"ha":1122,"x_min":0,"x_max":0,"o":"m 1058 479 b 561 -14 1058 194 818 -14 b 64 479 304 -14 64 194 b 561 972 64 764 304 972 b 1058 479 818 972 1058 764 m 214 479 b 561 50 214 228 386 50 b 908 479 736 50 908 228 b 561 907 908 731 736 907 b 214 479 386 907 214 731 "},"P":{"ha":874,"x_min":0,"x_max":0,"o":"m 47 958 l 428 958 b 826 681 661 958 826 869 b 510 421 826 511 660 421 l 403 472 b 690 685 606 472 690 554 b 426 897 690 833 581 897 l 324 897 l 324 61 l 501 61 l 501 0 l 47 0 l 47 61 l 190 61 l 190 897 l 47 897 "},"Q":{"ha":1122,"x_min":0,"x_max":0,"o":"m 1058 479 b 635 4 1058 222 858 28 l 635 -26 l 1281 -254 l 1021 -303 l 368 22 b 64 479 197 107 64 265 b 561 972 64 764 304 972 b 1058 479 818 972 1058 764 m 214 479 b 561 50 214 228 386 50 b 908 479 736 50 908 228 b 561 907 908 731 736 907 b 214 479 386 907 214 731 "},"R":{"ha":976,"x_min":0,"x_max":0,"o":"m 467 0 l 47 0 l 47 61 l 190 61 l 190 897 l 47 897 l 47 958 l 426 958 b 825 713 657 958 825 886 b 560 465 825 576 708 494 l 982 0 l 810 0 l 415 453 l 324 453 l 324 61 l 467 61 m 324 510 l 425 510 b 685 707 576 510 685 574 b 425 897 685 840 576 897 l 324 897 "},"S":{"ha":771,"x_min":0,"x_max":0,"o":"m 365 906 b 206 753 271 906 206 842 b 694 285 206 533 694 579 b 350 -14 694 108 540 -14 b 69 88 249 -14 136 26 l 69 319 b 381 54 139 153 243 54 b 571 229 485 54 571 117 b 94 706 571 485 94 408 b 371 972 94 850 210 972 b 564 903 451 972 525 939 l 660 975 l 660 663 b 365 906 588 793 496 906 "},"T":{"ha":1006,"x_min":0,"x_max":0,"o":"m 56 690 l 56 999 l 131 958 l 875 958 l 950 999 l 950 690 l 807 897 l 569 897 l 569 61 l 726 61 l 726 0 l 279 0 l 279 61 l 436 61 l 436 897 l 199 897 "},"U":{"ha":1083,"x_min":0,"x_max":0,"o":"m 846 897 l 703 897 l 703 958 l 1061 958 l 1061 897 l 918 897 l 918 353 b 550 -14 918 121 747 -14 b 165 349 374 -14 165 96 l 165 897 l 22 897 l 22 958 l 442 958 l 442 897 l 299 897 l 299 375 b 574 74 299 175 410 74 b 846 374 738 74 846 175 "},"V":{"ha":1047,"x_min":0,"x_max":0,"o":"m 554 188 l 829 897 l 658 897 l 658 958 l 1019 958 l 1019 897 l 904 897 l 524 -57 l 143 897 l 28 897 l 28 958 l 457 958 l 457 897 l 286 897 "},"W":{"ha":1492,"x_min":0,"x_max":0,"o":"m 546 203 l 724 669 l 643 897 l 542 897 l 542 958 l 950 958 l 950 897 l 779 897 l 1015 206 l 1276 897 l 1106 897 l 1106 958 l 1464 958 l 1464 897 l 1349 897 l 982 -57 l 756 582 l 510 -57 l 143 897 l 28 897 l 28 958 l 424 958 l 424 897 l 281 897 "},"X":{"ha":1124,"x_min":0,"x_max":0,"o":"m 504 958 l 504 897 l 356 897 l 574 593 l 790 897 l 642 897 l 642 958 l 1013 958 l 1013 897 l 875 897 l 615 533 l 953 61 l 1096 61 l 1096 0 l 658 0 l 658 61 l 801 61 l 528 443 l 256 61 l 399 61 l 399 0 l 28 0 l 28 61 l 171 61 l 486 503 l 204 897 l 67 897 l 67 958 "},"Y":{"ha":1047,"x_min":0,"x_max":0,"o":"m 300 0 l 300 61 l 457 61 l 457 463 l 143 897 l 28 897 l 28 958 l 469 958 l 469 897 l 299 897 l 557 521 l 825 897 l 654 897 l 654 958 l 1019 958 l 1019 897 l 904 897 l 590 463 l 590 61 l 747 61 l 747 0 "},"Z":{"ha":913,"x_min":0,"x_max":0,"o":"m 876 296 l 818 0 l 38 0 l 664 897 l 250 897 l 107 690 l 107 999 l 182 958 l 851 958 l 229 61 l 679 61 "},"Á":{"ha":1075,"x_min":0,"x_max":0,"o":"m 565 958 l 932 61 l 1047 61 l 1047 0 l 618 0 l 618 61 l 789 61 l 668 363 l 338 363 l 215 61 l 386 61 l 386 0 l 28 0 l 28 61 l 143 61 l 471 853 l 429 958 m 643 424 l 504 772 l 363 424 m 364 1026 l 610 1244 l 747 1176 "},"Ă":{"ha":1075,"x_min":0,"x_max":0,"o":"m 565 958 l 932 61 l 1047 61 l 1047 0 l 618 0 l 618 61 l 789 61 l 668 363 l 338 363 l 215 61 l 386 61 l 386 0 l 28 0 l 28 61 l 143 61 l 471 853 l 429 958 m 643 424 l 504 772 l 363 424 m 514 1026 b 290 1283 403 1026 290 1122 b 514 1118 346 1175 417 1118 b 738 1283 611 1118 682 1175 b 514 1026 738 1122 625 1026 "},"Â":{"ha":1075,"x_min":0,"x_max":0,"o":"m 565 958 l 932 61 l 1047 61 l 1047 0 l 618 0 l 618 61 l 789 61 l 668 363 l 338 363 l 215 61 l 386 61 l 386 0 l 28 0 l 28 61 l 143 61 l 471 853 l 429 958 m 643 424 l 504 772 l 363 424 m 586 1254 l 769 1014 l 525 1168 l 281 1014 l 464 1254 "},"Ä":{"ha":1075,"x_min":0,"x_max":0,"o":"m 565 958 l 932 61 l 1047 61 l 1047 0 l 618 0 l 618 61 l 789 61 l 668 363 l 338 363 l 215 61 l 386 61 l 386 0 l 28 0 l 28 61 l 143 61 l 471 853 l 429 958 m 643 424 l 504 772 l 363 424 m 660 1047 b 582 1124 615 1047 582 1081 b 660 1200 582 1167 615 1200 b 739 1124 704 1200 739 1167 b 660 1047 739 1081 704 1047 m 389 1047 b 311 1124 344 1047 311 1081 b 389 1200 311 1167 344 1200 b 468 1124 433 1200 468 1167 b 389 1047 468 1081 433 1047 "},"À":{"ha":1075,"x_min":0,"x_max":0,"o":"m 565 958 l 932 61 l 1047 61 l 1047 0 l 618 0 l 618 61 l 789 61 l 668 363 l 338 363 l 215 61 l 386 61 l 386 0 l 28 0 l 28 61 l 143 61 l 471 853 l 429 958 m 643 424 l 504 772 l 363 424 m 422 1244 l 668 1026 l 285 1176 "},"Ā":{"ha":1075,"x_min":0,"x_max":0,"o":"m 565 958 l 932 61 l 1047 61 l 1047 0 l 618 0 l 618 61 l 789 61 l 668 363 l 338 363 l 215 61 l 386 61 l 386 0 l 28 0 l 28 61 l 143 61 l 471 853 l 429 958 m 643 424 l 504 772 l 363 424 m 771 1143 l 704 1061 l 271 1061 l 338 1143 "},"Ą":{"ha":1075,"x_min":0,"x_max":0,"o":"m 565 958 l 932 61 l 1047 61 l 1047 0 l 644 0 b 504 -218 571 -61 504 -150 b 599 -297 504 -272 533 -297 l 661 -297 b 528 -371 614 -342 578 -371 b 419 -262 468 -371 419 -333 b 618 8 419 -178 514 -67 l 618 61 l 789 61 l 668 363 l 338 363 l 215 61 l 386 61 l 386 0 l 28 0 l 28 61 l 143 61 l 471 853 l 429 958 m 643 424 l 504 772 l 363 424 "},"Å":{"ha":1075,"x_min":0,"x_max":0,"o":"m 565 958 l 932 61 l 1047 61 l 1047 0 l 618 0 l 618 61 l 789 61 l 668 363 l 338 363 l 215 61 l 386 61 l 386 0 l 28 0 l 28 61 l 143 61 l 471 853 l 429 958 m 643 424 l 504 772 l 363 424 m 513 1307 b 665 1154 596 1307 665 1238 b 513 1003 665 1072 596 1003 b 360 1154 429 1003 360 1072 b 513 1307 360 1238 429 1307 m 513 1250 b 417 1154 454 1250 417 1213 b 513 1060 417 1097 454 1060 b 608 1154 571 1060 608 1097 b 513 1250 608 1213 571 1250 "},"Ã":{"ha":1075,"x_min":0,"x_max":0,"o":"m 565 958 l 932 61 l 1047 61 l 1047 0 l 618 0 l 618 61 l 789 61 l 668 363 l 338 363 l 215 61 l 386 61 l 386 0 l 28 0 l 28 61 l 143 61 l 471 853 l 429 958 m 643 424 l 504 772 l 363 424 m 457 1131 b 283 1004 413 1131 349 1074 l 388 1232 l 631 1167 b 804 1293 675 1167 739 1224 l 700 1065 "},"Æ":{"ha":1464,"x_min":0,"x_max":0,"o":"m 1193 669 l 1193 310 l 1083 460 l 879 460 l 879 61 l 1228 61 l 1425 296 l 1367 0 l 603 0 l 603 61 l 746 61 l 746 363 l 413 363 l 222 61 l 393 61 l 393 0 l 28 0 l 28 61 l 143 61 l 676 897 l 533 897 l 533 958 l 1268 958 l 1343 999 l 1343 704 l 1200 897 l 879 897 l 879 521 l 1083 521 m 746 424 l 746 890 l 451 424 "},"Ǽ":{"ha":1464,"x_min":0,"x_max":0,"o":"m 1193 669 l 1193 310 l 1083 460 l 879 460 l 879 61 l 1228 61 l 1425 296 l 1367 0 l 603 0 l 603 61 l 746 61 l 746 363 l 413 363 l 222 61 l 393 61 l 393 0 l 28 0 l 28 61 l 143 61 l 676 897 l 533 897 l 533 958 l 1268 958 l 1343 999 l 1343 704 l 1200 897 l 879 897 l 879 521 l 1083 521 m 746 424 l 746 890 l 451 424 m 833 1026 l 1079 1244 l 1217 1176 "},"Ć":{"ha":947,"x_min":0,"x_max":0,"o":"m 64 457 b 546 972 64 767 310 972 b 785 900 653 972 729 938 l 878 972 l 878 660 b 532 906 796 790 699 906 b 196 518 360 906 196 753 b 590 92 196 243 388 92 b 906 228 724 92 821 142 b 532 -14 858 97 717 -14 b 64 457 285 -14 64 168 m 424 1026 l 669 1244 l 807 1176 "},"Č":{"ha":947,"x_min":0,"x_max":0,"o":"m 64 457 b 546 972 64 767 310 972 b 785 900 653 972 729 938 l 878 972 l 878 660 b 532 906 796 790 699 906 b 196 518 360 906 196 753 b 590 92 196 243 388 92 b 906 228 724 92 821 142 b 532 -14 858 97 717 -14 b 64 457 285 -14 64 168 m 301 1267 l 546 1113 l 790 1267 l 607 1026 l 485 1026 "},"Ç":{"ha":947,"x_min":0,"x_max":0,"o":"m 64 457 b 546 972 64 767 310 972 b 785 900 653 972 729 938 l 878 972 l 878 660 b 532 906 796 790 699 906 b 196 518 360 906 196 753 b 590 92 196 243 388 92 b 906 228 724 92 821 142 b 532 -14 858 97 717 -14 b 517 -14 526 -14 522 -14 l 511 -79 b 638 -210 575 -107 638 -139 b 432 -371 638 -292 518 -371 b 353 -315 383 -371 353 -347 b 417 -257 353 -281 382 -257 l 474 -337 b 560 -247 511 -331 560 -292 b 419 -144 560 -196 496 -164 l 499 -12 b 64 457 265 3 64 182 "},"Ĉ":{"ha":947,"x_min":0,"x_max":0,"o":"m 64 457 b 546 972 64 767 310 972 b 785 900 653 972 729 938 l 878 972 l 878 660 b 532 906 796 790 699 906 b 196 518 360 906 196 753 b 590 92 196 243 388 92 b 906 228 724 92 821 142 b 532 -14 858 97 717 -14 b 64 457 285 -14 64 168 m 607 1254 l 790 1014 l 546 1168 l 301 1014 l 485 1254 "},"Ċ":{"ha":947,"x_min":0,"x_max":0,"o":"m 64 457 b 546 972 64 767 310 972 b 785 900 653 972 729 938 l 878 972 l 878 660 b 532 906 796 790 699 906 b 196 518 360 906 196 753 b 590 92 196 243 388 92 b 906 228 724 92 821 142 b 532 -14 858 97 717 -14 b 64 457 285 -14 64 168 m 535 1038 b 454 1118 489 1038 454 1072 b 535 1200 454 1164 489 1200 b 617 1118 581 1200 617 1164 b 535 1038 617 1072 581 1038 "},"Ď":{"ha":1096,"x_min":0,"x_max":0,"o":"m 410 958 b 1032 506 769 958 1032 792 b 424 0 1032 200 764 0 l 47 0 l 47 61 l 190 61 l 190 897 l 47 897 l 47 958 l 410 958 m 324 897 l 324 61 l 401 61 b 882 504 700 61 882 239 b 399 897 882 754 699 897 m 256 1267 l 500 1113 l 744 1267 l 561 1026 l 439 1026 "},"Đ":{"ha":1114,"x_min":0,"x_max":0,"o":"m 93 521 l 208 521 l 208 897 l 65 897 l 65 958 l 428 958 b 1050 506 788 958 1050 792 b 442 0 1050 200 782 0 l 65 0 l 65 61 l 208 61 l 208 460 l 65 460 m 342 897 l 342 521 l 590 521 l 563 460 l 342 460 l 342 61 l 419 61 b 900 504 718 61 900 239 b 417 897 900 754 717 897 "},"É":{"ha":908,"x_min":0,"x_max":0,"o":"m 638 669 l 638 310 l 528 460 l 324 460 l 324 61 l 672 61 l 869 296 l 811 0 l 47 0 l 47 61 l 190 61 l 190 897 l 47 897 l 47 958 l 713 958 l 788 999 l 788 704 l 644 897 l 324 897 l 324 521 l 528 521 m 331 1026 l 576 1244 l 714 1176 "},"Ĕ":{"ha":908,"x_min":0,"x_max":0,"o":"m 638 669 l 638 310 l 528 460 l 324 460 l 324 61 l 672 61 l 869 296 l 811 0 l 47 0 l 47 61 l 190 61 l 190 897 l 47 897 l 47 958 l 713 958 l 788 999 l 788 704 l 644 897 l 324 897 l 324 521 l 528 521 m 453 1026 b 229 1283 342 1026 229 1122 b 453 1118 285 1175 356 1118 b 676 1283 550 1118 621 1175 b 453 1026 676 1122 564 1026 "},"Ě":{"ha":908,"x_min":0,"x_max":0,"o":"m 638 669 l 638 310 l 528 460 l 324 460 l 324 61 l 672 61 l 869 296 l 811 0 l 47 0 l 47 61 l 190 61 l 190 897 l 47 897 l 47 958 l 713 958 l 788 999 l 788 704 l 644 897 l 324 897 l 324 521 l 528 521 m 208 1267 l 453 1113 l 697 1267 l 514 1026 l 392 1026 "},"Ê":{"ha":908,"x_min":0,"x_max":0,"o":"m 638 669 l 638 310 l 528 460 l 324 460 l 324 61 l 672 61 l 869 296 l 811 0 l 47 0 l 47 61 l 190 61 l 190 897 l 47 897 l 47 958 l 713 958 l 788 999 l 788 704 l 644 897 l 324 897 l 324 521 l 528 521 m 514 1254 l 697 1014 l 453 1168 l 208 1014 l 392 1254 "},"Ë":{"ha":908,"x_min":0,"x_max":0,"o":"m 638 669 l 638 310 l 528 460 l 324 460 l 324 61 l 672 61 l 869 296 l 811 0 l 47 0 l 47 61 l 190 61 l 190 897 l 47 897 l 47 958 l 713 958 l 788 999 l 788 704 l 644 897 l 324 897 l 324 521 l 528 521 m 574 1047 b 496 1124 529 1047 496 1081 b 574 1200 496 1167 529 1200 b 653 1124 618 1200 653 1167 b 574 1047 653 1081 618 1047 m 303 1047 b 225 1124 258 1047 225 1081 b 303 1200 225 1167 258 1200 b 382 1124 347 1200 382 1167 b 303 1047 382 1081 347 1047 "},"Ė":{"ha":908,"x_min":0,"x_max":0,"o":"m 638 669 l 638 310 l 528 460 l 324 460 l 324 61 l 672 61 l 869 296 l 811 0 l 47 0 l 47 61 l 190 61 l 190 897 l 47 897 l 47 958 l 713 958 l 788 999 l 788 704 l 644 897 l 324 897 l 324 521 l 528 521 m 453 1038 b 372 1118 407 1038 372 1072 b 453 1200 372 1164 407 1200 b 535 1118 499 1200 535 1164 b 453 1038 535 1072 499 1038 "},"È":{"ha":908,"x_min":0,"x_max":0,"o":"m 638 669 l 638 310 l 528 460 l 324 460 l 324 61 l 672 61 l 869 296 l 811 0 l 47 0 l 47 61 l 190 61 l 190 897 l 47 897 l 47 958 l 713 958 l 788 999 l 788 704 l 644 897 l 324 897 l 324 521 l 528 521 m 389 1244 l 635 1026 l 251 1176 "},"Ē":{"ha":908,"x_min":0,"x_max":0,"o":"m 638 669 l 638 310 l 528 460 l 324 460 l 324 61 l 672 61 l 869 296 l 811 0 l 47 0 l 47 61 l 190 61 l 190 897 l 47 897 l 47 958 l 713 958 l 788 999 l 788 704 l 644 897 l 324 897 l 324 521 l 528 521 m 703 1143 l 636 1061 l 203 1061 l 269 1143 "},"Ę":{"ha":908,"x_min":0,"x_max":0,"o":"m 638 669 l 638 310 l 528 460 l 324 460 l 324 61 l 672 61 l 869 296 l 811 0 l 661 0 b 521 -218 588 -61 521 -150 b 615 -297 521 -272 550 -297 l 678 -297 b 544 -371 631 -342 594 -371 b 436 -262 485 -371 436 -333 b 622 0 436 -182 524 -75 l 47 0 l 47 61 l 190 61 l 190 897 l 47 897 l 47 958 l 713 958 l 788 999 l 788 704 l 644 897 l 324 897 l 324 521 l 528 521 "},"Ð":{"ha":1114,"x_min":0,"x_max":0,"o":"m 93 521 l 208 521 l 208 897 l 65 897 l 65 958 l 428 958 b 1050 506 788 958 1050 792 b 442 0 1050 200 782 0 l 65 0 l 65 61 l 208 61 l 208 460 l 65 460 m 342 897 l 342 521 l 590 521 l 563 460 l 342 460 l 342 61 l 419 61 b 900 504 718 61 900 239 b 417 897 900 754 717 897 "},"Ğ":{"ha":1075,"x_min":0,"x_max":0,"o":"m 618 363 l 618 424 l 1035 424 l 1035 363 l 906 363 l 906 133 l 997 133 b 590 -14 910 42 763 -14 b 71 467 315 -14 71 165 b 561 972 71 772 325 972 b 824 900 674 972 764 938 l 921 972 l 921 660 b 557 906 838 792 732 906 b 219 503 368 906 219 747 b 638 56 219 224 424 56 b 775 75 686 56 736 61 l 775 363 m 560 1026 b 336 1283 449 1026 336 1122 b 560 1118 392 1175 463 1118 b 783 1283 657 1118 728 1175 b 560 1026 783 1122 671 1026 "},"Ĝ":{"ha":1075,"x_min":0,"x_max":0,"o":"m 618 363 l 618 424 l 1035 424 l 1035 363 l 906 363 l 906 133 l 997 133 b 590 -14 910 42 763 -14 b 71 467 315 -14 71 165 b 561 972 71 772 325 972 b 824 900 674 972 764 938 l 921 972 l 921 660 b 557 906 838 792 732 906 b 219 503 368 906 219 747 b 638 56 219 224 424 56 b 775 75 686 56 736 61 l 775 363 m 618 1254 l 801 1014 l 557 1168 l 313 1014 l 496 1254 "},"Ģ":{"ha":1075,"x_min":0,"x_max":0,"o":"m 618 363 l 618 424 l 1035 424 l 1035 363 l 906 363 l 906 133 l 997 133 b 590 -14 910 42 763 -14 b 71 467 315 -14 71 165 b 561 972 71 772 325 972 b 824 900 674 972 764 938 l 921 972 l 921 660 b 557 906 838 792 732 906 b 219 503 368 906 219 747 b 638 56 219 224 424 56 b 775 75 686 56 736 61 l 775 363 m 508 -164 b 593 -90 508 -126 540 -90 b 692 -193 656 -90 692 -139 b 474 -372 692 -290 586 -372 b 614 -219 553 -333 607 -271 l 536 -219 b 508 -164 518 -208 508 -187 "},"Ġ":{"ha":1075,"x_min":0,"x_max":0,"o":"m 618 363 l 618 424 l 1035 424 l 1035 363 l 906 363 l 906 133 l 997 133 b 590 -14 910 42 763 -14 b 71 467 315 -14 71 165 b 561 972 71 772 325 972 b 824 900 674 972 764 938 l 921 972 l 921 660 b 557 906 838 792 732 906 b 219 503 368 906 219 747 b 638 56 219 224 424 56 b 775 75 686 56 736 61 l 775 363 m 563 1038 b 482 1118 517 1038 482 1072 b 563 1200 482 1164 517 1200 b 644 1118 608 1200 644 1164 b 563 1038 644 1072 608 1038 "},"Ħ":{"ha":1231,"x_min":0,"x_max":0,"o":"m 93 688 l 208 688 l 208 897 l 65 897 l 65 958 l 485 958 l 485 897 l 342 897 l 342 688 l 889 688 l 889 897 l 746 897 l 746 958 l 1165 958 l 1165 897 l 1022 897 l 1022 688 l 1165 688 l 1138 626 l 1022 626 l 1022 61 l 1165 61 l 1165 0 l 746 0 l 746 61 l 889 61 l 889 404 l 342 404 l 342 61 l 485 61 l 485 0 l 65 0 l 65 61 l 208 61 l 208 626 l 65 626 m 889 465 l 889 626 l 342 626 l 342 465 "},"Ĥ":{"ha":1194,"x_min":0,"x_max":0,"o":"m 467 958 l 467 897 l 324 897 l 324 521 l 871 521 l 871 897 l 728 897 l 728 958 l 1147 958 l 1147 897 l 1004 897 l 1004 61 l 1147 61 l 1147 0 l 728 0 l 728 61 l 871 61 l 871 460 l 324 460 l 324 61 l 467 61 l 467 0 l 47 0 l 47 61 l 190 61 l 190 897 l 47 897 l 47 958 m 658 1254 l 842 1014 l 597 1168 l 353 1014 l 536 1254 "},"Í":{"ha":514,"x_min":0,"x_max":0,"o":"m 467 958 l 467 897 l 324 897 l 324 61 l 467 61 l 467 0 l 47 0 l 47 61 l 190 61 l 190 897 l 47 897 l 47 958 m 110 1026 l 356 1244 l 493 1176 "},"Ĭ":{"ha":514,"x_min":0,"x_max":0,"o":"m 467 958 l 467 897 l 324 897 l 324 61 l 467 61 l 467 0 l 47 0 l 47 61 l 190 61 l 190 897 l 47 897 l 47 958 m 257 1026 b 33 1283 146 1026 33 1122 b 257 1118 89 1175 160 1118 b 481 1283 354 1118 425 1175 b 257 1026 481 1122 368 1026 "},"Î":{"ha":514,"x_min":0,"x_max":0,"o":"m 467 958 l 467 897 l 324 897 l 324 61 l 467 61 l 467 0 l 47 0 l 47 61 l 190 61 l 190 897 l 47 897 l 47 958 m 318 1254 l 501 1014 l 257 1168 l 13 1014 l 196 1254 "},"Ï":{"ha":514,"x_min":0,"x_max":0,"o":"m 467 958 l 467 897 l 324 897 l 324 61 l 467 61 l 467 0 l 47 0 l 47 61 l 190 61 l 190 897 l 47 897 l 47 958 m 392 1047 b 314 1124 347 1047 314 1081 b 392 1200 314 1167 347 1200 b 471 1124 436 1200 471 1167 b 392 1047 471 1081 436 1047 m 121 1047 b 43 1124 76 1047 43 1081 b 121 1200 43 1167 76 1200 b 200 1124 165 1200 200 1167 b 121 1047 200 1081 165 1047 "},"İ":{"ha":514,"x_min":0,"x_max":0,"o":"m 467 958 l 467 897 l 324 897 l 324 61 l 467 61 l 467 0 l 47 0 l 47 61 l 190 61 l 190 897 l 47 897 l 47 958 m 257 1038 b 176 1118 211 1038 176 1072 b 257 1200 176 1164 211 1200 b 339 1118 303 1200 339 1164 b 257 1038 339 1072 303 1038 "},"Ì":{"ha":514,"x_min":0,"x_max":0,"o":"m 467 958 l 467 897 l 324 897 l 324 61 l 467 61 l 467 0 l 47 0 l 47 61 l 190 61 l 190 897 l 47 897 l 47 958 m 158 1244 l 404 1026 l 21 1176 "},"Ī":{"ha":514,"x_min":0,"x_max":0,"o":"m 467 958 l 467 897 l 324 897 l 324 61 l 467 61 l 467 0 l 47 0 l 47 61 l 190 61 l 190 897 l 47 897 l 47 958 m 507 1143 l 440 1061 l 7 1061 l 74 1143 "},"Į":{"ha":514,"x_min":0,"x_max":0,"o":"m 467 958 l 467 897 l 324 897 l 324 61 l 467 61 l 467 0 l 319 0 b 179 -218 246 -61 179 -150 b 274 -297 179 -272 208 -297 l 336 -297 b 203 -371 289 -342 253 -371 b 94 -262 143 -371 94 -333 b 281 0 94 -182 182 -75 l 47 0 l 47 61 l 190 61 l 190 897 l 47 897 l 47 958 "},"Ĩ":{"ha":514,"x_min":0,"x_max":0,"o":"m 467 958 l 467 897 l 324 897 l 324 61 l 467 61 l 467 0 l 47 0 l 47 61 l 190 61 l 190 897 l 47 897 l 47 958 m 183 1131 b 10 1004 139 1131 75 1074 l 114 1232 l 357 1167 b 531 1293 401 1167 465 1224 l 426 1065 "},"Ĵ":{"ha":514,"x_min":0,"x_max":0,"o":"m 190 897 l 47 897 l 47 958 l 467 958 l 467 897 l 324 897 l 324 46 b -17 -319 271 -106 100 -319 b -103 -239 -69 -319 -103 -283 b -58 -158 -103 -210 -89 -176 l 90 -214 b 190 67 140 -168 190 -68 m 311 1254 l 494 1014 l 250 1168 l 6 1014 l 189 1254 "},"Ķ":{"ha":1006,"x_min":0,"x_max":0,"o":"m 467 958 l 467 897 l 324 897 l 324 536 l 375 536 l 761 897 l 614 897 l 614 958 l 979 958 l 979 897 l 851 897 l 465 542 l 1000 0 l 822 0 l 324 515 l 324 61 l 467 61 l 467 0 l 47 0 l 47 61 l 190 61 l 190 897 l 47 897 l 47 958 m 444 -164 b 529 -90 444 -126 476 -90 b 628 -193 592 -90 628 -139 b 410 -372 628 -290 522 -372 b 550 -219 489 -333 543 -271 l 472 -219 b 444 -164 454 -208 444 -187 "},"Ĺ":{"ha":876,"x_min":0,"x_max":0,"o":"m 47 897 l 47 958 l 467 958 l 467 897 l 324 897 l 324 61 l 658 61 l 856 296 l 797 0 l 47 0 l 47 61 l 190 61 l 190 897 m 190 1026 l 436 1244 l 574 1176 "},"Ľ":{"ha":876,"x_min":0,"x_max":0,"o":"m 47 897 l 47 958 l 467 958 l 467 897 l 324 897 l 324 61 l 658 61 l 856 296 l 797 0 l 47 0 l 47 61 l 190 61 l 190 897 m 526 593 l 588 958 l 713 958 "},"Ļ":{"ha":876,"x_min":0,"x_max":0,"o":"m 47 897 l 47 958 l 467 958 l 467 897 l 324 897 l 324 61 l 658 61 l 856 296 l 797 0 l 47 0 l 47 61 l 190 61 l 190 897 m 356 -164 b 440 -90 356 -126 388 -90 b 539 -193 503 -90 539 -139 b 321 -372 539 -290 433 -372 b 461 -219 400 -333 454 -271 l 383 -219 b 356 -164 365 -208 356 -187 "},"Ŀ":{"ha":876,"x_min":0,"x_max":0,"o":"m 47 897 l 47 958 l 467 958 l 467 897 l 324 897 l 324 61 l 658 61 l 856 296 l 797 0 l 47 0 l 47 61 l 190 61 l 190 897 m 661 465 b 576 549 614 465 576 503 b 661 632 576 594 614 632 b 746 549 708 632 746 594 b 661 465 746 503 708 465 "},"Ł":{"ha":894,"x_min":0,"x_max":0,"o":"m 65 364 l 208 447 l 208 897 l 65 897 l 65 958 l 485 958 l 485 897 l 342 897 l 342 515 l 563 646 l 563 581 l 342 450 l 342 61 l 676 61 l 874 296 l 815 0 l 65 0 l 65 61 l 208 61 l 208 382 l 65 299 "},"Ń":{"ha":1075,"x_min":0,"x_max":0,"o":"m 25 0 l 25 61 l 168 61 l 168 796 l 26 958 l 196 958 l 832 217 l 832 897 l 689 897 l 689 958 l 1047 958 l 1047 897 l 904 897 l 904 -46 l 240 714 l 240 61 l 383 61 l 383 0 m 394 1026 l 640 1244 l 778 1176 "},"Ň":{"ha":1075,"x_min":0,"x_max":0,"o":"m 25 0 l 25 61 l 168 61 l 168 796 l 26 958 l 196 958 l 832 217 l 832 897 l 689 897 l 689 958 l 1047 958 l 1047 897 l 904 897 l 904 -46 l 240 714 l 240 61 l 383 61 l 383 0 m 286 1267 l 531 1113 l 775 1267 l 592 1026 l 469 1026 "},"Ņ":{"ha":1075,"x_min":0,"x_max":0,"o":"m 25 0 l 25 61 l 168 61 l 168 796 l 26 958 l 196 958 l 832 217 l 832 897 l 689 897 l 689 958 l 1047 958 l 1047 897 l 904 897 l 904 -46 l 240 714 l 240 61 l 383 61 l 383 0 m 449 -164 b 533 -90 449 -126 481 -90 b 632 -193 596 -90 632 -139 b 414 -372 632 -290 526 -372 b 554 -219 493 -333 547 -271 l 476 -219 b 449 -164 458 -208 449 -187 "},"Ñ":{"ha":1075,"x_min":0,"x_max":0,"o":"m 25 0 l 25 61 l 168 61 l 168 796 l 26 958 l 196 958 l 832 217 l 832 897 l 689 897 l 689 958 l 1047 958 l 1047 897 l 904 897 l 904 -46 l 240 714 l 240 61 l 383 61 l 383 0 m 460 1131 b 286 1004 415 1131 351 1074 l 390 1232 l 633 1167 b 807 1293 678 1167 742 1224 l 703 1065 "},"Ŋ":{"ha":1075,"x_min":0,"x_max":0,"o":"m 25 0 l 25 61 l 168 61 l 168 796 l 26 958 l 196 958 l 832 217 l 832 897 l 689 897 l 689 958 l 1047 958 l 1047 897 l 904 897 l 904 -72 b 636 -403 854 -210 743 -403 b 558 -326 588 -403 558 -365 b 600 -257 558 -300 571 -274 l 724 -304 b 832 -12 771 -262 832 -143 l 832 36 l 240 714 l 240 61 l 383 61 l 383 0 "},"Ó":{"ha":1122,"x_min":0,"x_max":0,"o":"m 1058 479 b 561 -14 1058 194 818 -14 b 64 479 304 -14 64 194 b 561 972 64 764 304 972 b 1058 479 818 972 1058 764 m 214 479 b 561 50 214 228 386 50 b 908 479 736 50 908 228 b 561 907 908 731 736 907 b 214 479 386 907 214 731 m 397 1026 l 643 1244 l 781 1176 "},"Ŏ":{"ha":1122,"x_min":0,"x_max":0,"o":"m 1058 479 b 561 -14 1058 194 818 -14 b 64 479 304 -14 64 194 b 561 972 64 764 304 972 b 1058 479 818 972 1058 764 m 214 479 b 561 50 214 228 386 50 b 908 479 736 50 908 228 b 561 907 908 731 736 907 b 214 479 386 907 214 731 m 561 1026 b 338 1283 450 1026 338 1122 b 561 1118 393 1175 464 1118 b 785 1283 658 1118 729 1175 b 561 1026 785 1122 672 1026 "},"Ô":{"ha":1122,"x_min":0,"x_max":0,"o":"m 1058 479 b 561 -14 1058 194 818 -14 b 64 479 304 -14 64 194 b 561 972 64 764 304 972 b 1058 479 818 972 1058 764 m 214 479 b 561 50 214 228 386 50 b 908 479 736 50 908 228 b 561 907 908 731 736 907 b 214 479 386 907 214 731 m 622 1254 l 806 1014 l 561 1168 l 317 1014 l 500 1254 "},"Ö":{"ha":1122,"x_min":0,"x_max":0,"o":"m 1058 479 b 561 -14 1058 194 818 -14 b 64 479 304 -14 64 194 b 561 972 64 764 304 972 b 1058 479 818 972 1058 764 m 214 479 b 561 50 214 228 386 50 b 908 479 736 50 908 228 b 561 907 908 731 736 907 b 214 479 386 907 214 731 m 696 1047 b 618 1124 651 1047 618 1081 b 696 1200 618 1167 651 1200 b 775 1124 740 1200 775 1167 b 696 1047 775 1081 740 1047 m 425 1047 b 347 1124 381 1047 347 1081 b 425 1200 347 1167 381 1200 b 504 1124 469 1200 504 1167 b 425 1047 504 1081 469 1047 "},"Ò":{"ha":1122,"x_min":0,"x_max":0,"o":"m 1058 479 b 561 -14 1058 194 818 -14 b 64 479 304 -14 64 194 b 561 972 64 764 304 972 b 1058 479 818 972 1058 764 m 214 479 b 561 50 214 228 386 50 b 908 479 736 50 908 228 b 561 907 908 731 736 907 b 214 479 386 907 214 731 m 479 1244 l 725 1026 l 342 1176 "},"Ő":{"ha":1122,"x_min":0,"x_max":0,"o":"m 1058 479 b 561 -14 1058 194 818 -14 b 64 479 304 -14 64 194 b 561 972 64 764 304 972 b 1058 479 818 972 1058 764 m 214 479 b 561 50 214 228 386 50 b 908 479 736 50 908 228 b 561 907 908 731 736 907 b 214 479 386 907 214 731 m 947 1215 l 633 1026 l 790 1243 m 678 1215 l 364 1026 l 521 1243 "},"Ō":{"ha":1122,"x_min":0,"x_max":0,"o":"m 1058 479 b 561 -14 1058 194 818 -14 b 64 479 304 -14 64 194 b 561 972 64 764 304 972 b 1058 479 818 972 1058 764 m 214 479 b 561 50 214 228 386 50 b 908 479 736 50 908 228 b 561 907 908 731 736 907 b 214 479 386 907 214 731 m 811 1143 l 744 1061 l 311 1061 l 378 1143 "},"Ø":{"ha":1122,"x_min":0,"x_max":0,"o":"m 1058 479 b 561 -14 1058 194 818 -14 b 308 56 472 -14 385 11 l 211 -81 l 138 -81 l 260 89 b 64 479 143 178 64 315 b 561 972 64 764 304 972 b 833 890 658 972 753 943 l 913 1000 l 986 1000 l 882 854 b 1058 479 988 765 1058 633 m 214 479 b 319 174 214 356 256 249 l 778 811 b 561 907 715 872 639 907 b 214 479 386 907 214 731 m 908 479 b 818 765 908 593 872 692 l 363 129 b 561 50 421 79 490 50 b 908 479 736 50 908 228 "},"Ǿ":{"ha":1122,"x_min":0,"x_max":0,"o":"m 1058 479 b 561 -14 1058 194 818 -14 b 308 56 472 -14 385 11 l 211 -81 l 138 -81 l 260 89 b 64 479 143 178 64 315 b 561 972 64 764 304 972 b 833 890 658 972 753 943 l 913 1000 l 986 1000 l 882 854 b 1058 479 988 765 1058 633 m 214 479 b 319 174 214 356 256 249 l 778 811 b 561 907 715 872 639 907 b 214 479 386 907 214 731 m 908 479 b 818 765 908 593 872 692 l 363 129 b 561 50 421 79 490 50 b 908 479 736 50 908 228 m 397 1026 l 643 1244 l 781 1176 "},"Õ":{"ha":1122,"x_min":0,"x_max":0,"o":"m 1058 479 b 561 -14 1058 194 818 -14 b 64 479 304 -14 64 194 b 561 972 64 764 304 972 b 1058 479 818 972 1058 764 m 214 479 b 561 50 214 228 386 50 b 908 479 736 50 908 228 b 561 907 908 731 736 907 b 214 479 386 907 214 731 m 474 1131 b 300 1004 429 1131 365 1074 l 404 1232 l 647 1167 b 821 1293 692 1167 756 1224 l 717 1065 "},"Œ":{"ha":1510,"x_min":0,"x_max":0,"o":"m 686 0 b 64 453 326 0 64 167 b 672 958 64 758 332 958 l 1294 958 l 1369 999 l 1369 704 l 1226 897 l 906 897 l 906 521 l 1110 521 l 1219 669 l 1219 310 l 1110 460 l 906 460 l 906 61 l 1254 61 l 1451 296 l 1393 0 l 686 0 m 772 61 l 772 897 l 694 897 b 214 454 396 897 214 719 b 697 61 214 204 397 61 "},"Ŕ":{"ha":976,"x_min":0,"x_max":0,"o":"m 467 0 l 47 0 l 47 61 l 190 61 l 190 897 l 47 897 l 47 958 l 426 958 b 825 713 657 958 825 886 b 560 465 825 576 708 494 l 982 0 l 810 0 l 415 453 l 324 453 l 324 61 l 467 61 m 324 510 l 425 510 b 685 707 576 510 685 574 b 425 897 685 840 576 897 l 324 897 m 332 1026 l 578 1244 l 715 1176 "},"Ř":{"ha":976,"x_min":0,"x_max":0,"o":"m 467 0 l 47 0 l 47 61 l 190 61 l 190 897 l 47 897 l 47 958 l 426 958 b 825 713 657 958 825 886 b 560 465 825 576 708 494 l 982 0 l 810 0 l 415 453 l 324 453 l 324 61 l 467 61 m 324 510 l 425 510 b 685 707 576 510 685 574 b 425 897 685 840 576 897 l 324 897 m 182 1267 l 426 1113 l 671 1267 l 488 1026 l 365 1026 "},"Ŗ":{"ha":976,"x_min":0,"x_max":0,"o":"m 467 0 l 47 0 l 47 61 l 190 61 l 190 897 l 47 897 l 47 958 l 426 958 b 825 713 657 958 825 886 b 560 465 825 576 708 494 l 982 0 l 810 0 l 415 453 l 324 453 l 324 61 l 467 61 m 324 510 l 425 510 b 685 707 576 510 685 574 b 425 897 685 840 576 897 l 324 897 m 414 -164 b 499 -90 414 -126 446 -90 b 597 -193 561 -90 597 -139 b 379 -372 597 -290 492 -372 b 519 -219 458 -333 513 -271 l 442 -219 b 414 -164 424 -208 414 -187 "},"Ś":{"ha":771,"x_min":0,"x_max":0,"o":"m 365 906 b 206 753 271 906 206 842 b 694 285 206 533 694 579 b 350 -14 694 108 540 -14 b 69 88 249 -14 136 26 l 69 319 b 381 54 139 153 243 54 b 571 229 485 54 571 117 b 94 706 571 485 94 408 b 371 972 94 850 210 972 b 564 903 451 972 525 939 l 660 975 l 660 663 b 365 906 588 793 496 906 m 265 1026 l 511 1244 l 649 1176 "},"Š":{"ha":771,"x_min":0,"x_max":0,"o":"m 365 906 b 206 753 271 906 206 842 b 694 285 206 533 694 579 b 350 -14 694 108 540 -14 b 69 88 249 -14 136 26 l 69 319 b 381 54 139 153 243 54 b 571 229 485 54 571 117 b 94 706 571 485 94 408 b 371 972 94 850 210 972 b 564 903 451 972 525 939 l 660 975 l 660 663 b 365 906 588 793 496 906 m 129 1267 l 374 1113 l 618 1267 l 435 1026 l 313 1026 "},"Ş":{"ha":771,"x_min":0,"x_max":0,"o":"m 274 -371 b 194 -315 225 -371 194 -347 b 258 -257 194 -281 224 -257 l 315 -337 b 401 -247 353 -331 401 -292 b 261 -144 401 -196 338 -164 l 339 -14 b 69 88 240 -11 133 29 l 69 319 b 381 54 139 153 243 54 b 571 229 485 54 571 117 b 94 706 571 485 94 408 b 371 972 94 850 210 972 b 564 903 451 972 525 939 l 660 975 l 660 663 b 365 906 588 793 496 906 b 206 753 271 906 206 842 b 694 285 206 533 694 579 b 358 -14 694 111 544 -10 l 353 -79 b 479 -210 417 -107 479 -139 b 274 -371 479 -292 360 -371 "},"Ŝ":{"ha":771,"x_min":0,"x_max":0,"o":"m 365 906 b 206 753 271 906 206 842 b 694 285 206 533 694 579 b 350 -14 694 108 540 -14 b 69 88 249 -14 136 26 l 69 319 b 381 54 139 153 243 54 b 571 229 485 54 571 117 b 94 706 571 485 94 408 b 371 972 94 850 210 972 b 564 903 451 972 525 939 l 660 975 l 660 663 b 365 906 588 793 496 906 m 447 1254 l 631 1014 l 386 1168 l 142 1014 l 325 1254 "},"Ș":{"ha":771,"x_min":0,"x_max":0,"o":"m 365 906 b 206 753 271 906 206 842 b 694 285 206 533 694 579 b 350 -14 694 108 540 -14 b 69 88 249 -14 136 26 l 69 319 b 381 54 139 153 243 54 b 571 229 485 54 571 117 b 94 706 571 485 94 408 b 371 972 94 850 210 972 b 564 903 451 972 525 939 l 660 975 l 660 663 b 365 906 588 793 496 906 m 278 -164 b 363 -90 278 -126 310 -90 b 461 -193 425 -90 461 -139 b 243 -372 461 -290 356 -372 b 383 -219 322 -333 376 -271 l 306 -219 b 278 -164 288 -208 278 -187 "},"ẞ":{"ha":1060,"x_min":0,"x_max":0,"o":"m 706 51 b 892 247 810 51 892 125 b 574 517 892 388 761 482 l 786 790 b 547 918 740 863 646 918 b 296 586 365 918 296 751 l 296 0 l 19 0 l 19 61 l 163 61 l 163 585 b 564 972 163 818 321 972 b 851 914 676 972 781 943 l 981 947 l 711 599 b 1008 293 858 558 1008 461 b 694 -14 1008 136 883 -14 b 435 81 588 -14 499 24 l 435 310 b 706 51 501 144 596 51 "},"Ŧ":{"ha":1006,"x_min":0,"x_max":0,"o":"m 269 521 l 436 521 l 436 897 l 199 897 l 56 690 l 56 999 l 131 958 l 875 958 l 950 999 l 950 690 l 807 897 l 569 897 l 569 521 l 764 521 l 736 460 l 569 460 l 569 61 l 726 61 l 726 0 l 279 0 l 279 61 l 436 61 l 436 460 l 242 460 "},"Ť":{"ha":1006,"x_min":0,"x_max":0,"o":"m 56 690 l 56 999 l 131 958 l 875 958 l 950 999 l 950 690 l 807 897 l 569 897 l 569 61 l 726 61 l 726 0 l 279 0 l 279 61 l 436 61 l 436 897 l 199 897 m 564 1026 l 747 1267 l 503 1113 l 258 1267 l 442 1026 "},"Ţ":{"ha":1006,"x_min":0,"x_max":0,"o":"m 418 -371 b 339 -315 369 -371 339 -347 b 403 -257 339 -281 368 -257 l 460 -337 b 546 -247 497 -331 546 -292 b 406 -144 546 -196 482 -164 l 492 0 l 279 0 l 279 61 l 436 61 l 436 897 l 199 897 l 56 690 l 56 999 l 131 958 l 875 958 l 950 999 l 950 690 l 807 897 l 569 897 l 569 61 l 726 61 l 726 0 l 504 0 l 497 -79 b 624 -210 561 -107 624 -139 b 418 -371 624 -292 504 -371 "},"Ț":{"ha":1006,"x_min":0,"x_max":0,"o":"m 56 690 l 56 999 l 131 958 l 875 958 l 950 999 l 950 690 l 807 897 l 569 897 l 569 61 l 726 61 l 726 0 l 279 0 l 279 61 l 436 61 l 436 897 l 199 897 m 422 -164 b 507 -90 422 -126 454 -90 b 606 -193 569 -90 606 -139 b 388 -372 606 -290 500 -372 b 528 -219 467 -333 521 -271 l 450 -219 b 422 -164 432 -208 422 -187 "},"Þ":{"ha":874,"x_min":0,"x_max":0,"o":"m 190 61 l 190 897 l 47 897 l 47 958 l 467 958 l 467 897 l 324 897 l 324 757 l 428 757 b 826 479 661 757 826 668 b 510 219 826 310 660 219 l 403 271 b 690 483 606 271 690 353 b 426 696 690 632 581 696 l 324 696 l 324 61 l 501 61 l 501 0 l 47 0 l 47 61 "},"Ú":{"ha":1083,"x_min":0,"x_max":0,"o":"m 846 897 l 703 897 l 703 958 l 1061 958 l 1061 897 l 918 897 l 918 353 b 550 -14 918 121 747 -14 b 165 349 374 -14 165 96 l 165 897 l 22 897 l 22 958 l 442 958 l 442 897 l 299 897 l 299 375 b 574 74 299 175 410 74 b 846 374 738 74 846 175 m 411 1026 l 657 1244 l 794 1176 "},"Ŭ":{"ha":1083,"x_min":0,"x_max":0,"o":"m 846 897 l 703 897 l 703 958 l 1061 958 l 1061 897 l 918 897 l 918 353 b 550 -14 918 121 747 -14 b 165 349 374 -14 165 96 l 165 897 l 22 897 l 22 958 l 442 958 l 442 897 l 299 897 l 299 375 b 574 74 299 175 410 74 b 846 374 738 74 846 175 m 568 1026 b 344 1283 457 1026 344 1122 b 568 1118 400 1175 471 1118 b 792 1283 665 1118 736 1175 b 568 1026 792 1122 679 1026 "},"Û":{"ha":1083,"x_min":0,"x_max":0,"o":"m 846 897 l 703 897 l 703 958 l 1061 958 l 1061 897 l 918 897 l 918 353 b 550 -14 918 121 747 -14 b 165 349 374 -14 165 96 l 165 897 l 22 897 l 22 958 l 442 958 l 442 897 l 299 897 l 299 375 b 574 74 299 175 410 74 b 846 374 738 74 846 175 m 629 1254 l 813 1014 l 568 1168 l 324 1014 l 507 1254 "},"Ü":{"ha":1083,"x_min":0,"x_max":0,"o":"m 846 897 l 703 897 l 703 958 l 1061 958 l 1061 897 l 918 897 l 918 353 b 550 -14 918 121 747 -14 b 165 349 374 -14 165 96 l 165 897 l 22 897 l 22 958 l 442 958 l 442 897 l 299 897 l 299 375 b 574 74 299 175 410 74 b 846 374 738 74 846 175 m 711 1047 b 633 1124 667 1047 633 1081 b 711 1200 633 1167 667 1200 b 790 1124 756 1200 790 1167 b 711 1047 790 1081 756 1047 m 440 1047 b 363 1124 396 1047 363 1081 b 440 1200 363 1167 396 1200 b 519 1124 485 1200 519 1167 b 440 1047 519 1081 485 1047 "},"Ù":{"ha":1083,"x_min":0,"x_max":0,"o":"m 846 897 l 703 897 l 703 958 l 1061 958 l 1061 897 l 918 897 l 918 353 b 550 -14 918 121 747 -14 b 165 349 374 -14 165 96 l 165 897 l 22 897 l 22 958 l 442 958 l 442 897 l 299 897 l 299 375 b 574 74 299 175 410 74 b 846 374 738 74 846 175 m 450 1244 l 696 1026 l 313 1176 "},"Ű":{"ha":1083,"x_min":0,"x_max":0,"o":"m 846 897 l 703 897 l 703 958 l 1061 958 l 1061 897 l 918 897 l 918 353 b 550 -14 918 121 747 -14 b 165 349 374 -14 165 96 l 165 897 l 22 897 l 22 958 l 442 958 l 442 897 l 299 897 l 299 375 b 574 74 299 175 410 74 b 846 374 738 74 846 175 m 960 1215 l 646 1026 l 803 1243 m 690 1215 l 376 1026 l 533 1243 "},"Ū":{"ha":1083,"x_min":0,"x_max":0,"o":"m 846 897 l 703 897 l 703 958 l 1061 958 l 1061 897 l 918 897 l 918 353 b 550 -14 918 121 747 -14 b 165 349 374 -14 165 96 l 165 897 l 22 897 l 22 958 l 442 958 l 442 897 l 299 897 l 299 375 b 574 74 299 175 410 74 b 846 374 738 74 846 175 m 840 1143 l 774 1061 l 340 1061 l 407 1143 "},"Ų":{"ha":1083,"x_min":0,"x_max":0,"o":"m 846 897 l 703 897 l 703 958 l 1061 958 l 1061 897 l 918 897 l 918 353 b 717 18 918 190 829 83 b 553 -218 628 -33 553 -143 b 647 -297 553 -272 582 -297 l 710 -297 b 576 -371 663 -342 626 -371 b 468 -262 517 -371 468 -333 b 649 -3 468 -183 551 -78 b 550 -14 617 -10 583 -14 b 165 349 374 -14 165 96 l 165 897 l 22 897 l 22 958 l 442 958 l 442 897 l 299 897 l 299 375 b 574 74 299 175 410 74 b 846 374 738 74 846 175 "},"Ů":{"ha":1083,"x_min":0,"x_max":0,"o":"m 846 897 l 703 897 l 703 958 l 1061 958 l 1061 897 l 918 897 l 918 353 b 550 -14 918 121 747 -14 b 165 349 374 -14 165 96 l 165 897 l 22 897 l 22 958 l 442 958 l 442 897 l 299 897 l 299 375 b 574 74 299 175 410 74 b 846 374 738 74 846 175 m 569 1307 b 722 1154 653 1307 722 1238 b 569 1003 722 1072 653 1003 b 417 1154 486 1003 417 1072 b 569 1307 417 1238 486 1307 m 569 1250 b 474 1154 511 1250 474 1213 b 569 1060 474 1097 511 1060 b 665 1154 628 1060 665 1097 b 569 1250 665 1213 628 1250 "},"Ũ":{"ha":1083,"x_min":0,"x_max":0,"o":"m 846 897 l 703 897 l 703 958 l 1061 958 l 1061 897 l 918 897 l 918 353 b 550 -14 918 121 747 -14 b 165 349 374 -14 165 96 l 165 897 l 22 897 l 22 958 l 442 958 l 442 897 l 299 897 l 299 375 b 574 74 299 175 410 74 b 846 374 738 74 846 175 m 513 1131 b 339 1004 468 1131 404 1074 l 443 1232 l 686 1167 b 860 1293 731 1167 794 1224 l 756 1065 "},"Ẃ":{"ha":1492,"x_min":0,"x_max":0,"o":"m 546 203 l 724 669 l 643 897 l 542 897 l 542 958 l 950 958 l 950 897 l 779 897 l 1015 206 l 1276 897 l 1106 897 l 1106 958 l 1464 958 l 1464 897 l 1349 897 l 982 -57 l 756 582 l 510 -57 l 143 897 l 28 897 l 28 958 l 424 958 l 424 897 l 281 897 m 583 1026 l 829 1244 l 967 1176 "},"Ŵ":{"ha":1492,"x_min":0,"x_max":0,"o":"m 546 203 l 724 669 l 643 897 l 542 897 l 542 958 l 950 958 l 950 897 l 779 897 l 1015 206 l 1276 897 l 1106 897 l 1106 958 l 1464 958 l 1464 897 l 1349 897 l 982 -57 l 756 582 l 510 -57 l 143 897 l 28 897 l 28 958 l 424 958 l 424 897 l 281 897 m 800 1254 l 983 1014 l 739 1168 l 494 1014 l 678 1254 "},"Ẁ":{"ha":1492,"x_min":0,"x_max":0,"o":"m 546 203 l 724 669 l 643 897 l 542 897 l 542 958 l 950 958 l 950 897 l 779 897 l 1015 206 l 1276 897 l 1106 897 l 1106 958 l 1464 958 l 1464 897 l 1349 897 l 982 -57 l 756 582 l 510 -57 l 143 897 l 28 897 l 28 958 l 424 958 l 424 897 l 281 897 m 656 1244 l 901 1026 l 518 1176 "},"Ẅ":{"ha":1492,"x_min":0,"x_max":0,"o":"m 546 203 l 724 669 l 643 897 l 542 897 l 542 958 l 950 958 l 950 897 l 779 897 l 1015 206 l 1276 897 l 1106 897 l 1106 958 l 1464 958 l 1464 897 l 1349 897 l 982 -57 l 756 582 l 510 -57 l 143 897 l 28 897 l 28 958 l 424 958 l 424 897 l 281 897 m 879 1047 b 801 1124 835 1047 801 1081 b 879 1200 801 1167 835 1200 b 958 1124 924 1200 958 1167 b 879 1047 958 1081 924 1047 m 608 1047 b 531 1124 564 1047 531 1081 b 608 1200 531 1167 564 1200 b 688 1124 653 1200 688 1167 b 608 1047 688 1081 653 1047 "},"Ý":{"ha":1047,"x_min":0,"x_max":0,"o":"m 300 0 l 300 61 l 457 61 l 457 463 l 143 897 l 28 897 l 28 958 l 469 958 l 469 897 l 299 897 l 557 521 l 825 897 l 654 897 l 654 958 l 1019 958 l 1019 897 l 904 897 l 590 463 l 590 61 l 747 61 l 747 0 m 663 1244 l 417 1026 l 800 1176 "},"Ŷ":{"ha":1047,"x_min":0,"x_max":0,"o":"m 300 0 l 300 61 l 457 61 l 457 463 l 143 897 l 28 897 l 28 958 l 469 958 l 469 897 l 299 897 l 557 521 l 825 897 l 654 897 l 654 958 l 1019 958 l 1019 897 l 904 897 l 590 463 l 590 61 l 747 61 l 747 0 m 606 1254 l 789 1014 l 544 1168 l 300 1014 l 483 1254 "},"Ÿ":{"ha":1047,"x_min":0,"x_max":0,"o":"m 300 0 l 300 61 l 457 61 l 457 463 l 143 897 l 28 897 l 28 958 l 469 958 l 469 897 l 299 897 l 557 521 l 825 897 l 654 897 l 654 958 l 1019 958 l 1019 897 l 904 897 l 590 463 l 590 61 l 747 61 l 747 0 m 689 1047 b 611 1124 644 1047 611 1081 b 689 1200 611 1167 644 1200 b 768 1124 733 1200 768 1167 b 689 1047 768 1081 733 1047 m 418 1047 b 340 1124 374 1047 340 1081 b 418 1200 340 1167 374 1200 b 497 1124 463 1200 497 1167 b 418 1047 497 1081 463 1047 "},"Ỳ":{"ha":1047,"x_min":0,"x_max":0,"o":"m 300 0 l 300 61 l 457 61 l 457 463 l 143 897 l 28 897 l 28 958 l 469 958 l 469 897 l 299 897 l 557 521 l 825 897 l 654 897 l 654 958 l 1019 958 l 1019 897 l 904 897 l 590 463 l 590 61 l 747 61 l 747 0 m 419 1244 l 665 1026 l 282 1176 "},"Ź":{"ha":913,"x_min":0,"x_max":0,"o":"m 876 296 l 818 0 l 38 0 l 664 897 l 250 897 l 107 690 l 107 999 l 182 958 l 851 958 l 229 61 l 679 61 m 329 1026 l 575 1244 l 713 1176 "},"Ž":{"ha":913,"x_min":0,"x_max":0,"o":"m 876 296 l 818 0 l 38 0 l 664 897 l 250 897 l 107 690 l 107 999 l 182 958 l 851 958 l 229 61 l 679 61 m 235 1267 l 479 1113 l 724 1267 l 540 1026 l 418 1026 "},"Ż":{"ha":913,"x_min":0,"x_max":0,"o":"m 876 296 l 818 0 l 38 0 l 664 897 l 250 897 l 107 690 l 107 999 l 182 958 l 851 958 l 229 61 l 679 61 m 465 1038 b 385 1118 419 1038 385 1072 b 465 1200 385 1164 419 1200 b 547 1118 511 1200 547 1164 b 465 1038 547 1072 511 1038 "},"a":{"ha":628,"x_min":0,"x_max":0,"o":"m 378 440 b 192 549 378 514 339 590 l 192 421 l 40 421 b 351 639 89 540 228 639 b 492 482 428 639 492 585 l 492 161 b 557 83 492 107 518 83 b 628 115 583 83 608 93 b 494 -11 628 40 564 -11 b 379 74 431 -11 394 26 l 354 74 b 182 -10 318 40 258 -10 b 50 119 115 -10 50 39 b 219 294 50 210 135 261 l 378 357 l 378 440 m 299 279 b 171 151 215 244 171 215 b 258 76 171 103 208 76 b 378 129 306 76 344 97 l 378 313 "},"b":{"ha":761,"x_min":0,"x_max":0,"o":"m -29 989 l 229 1083 l 229 564 l 256 564 b 443 639 306 603 371 639 b 715 333 606 639 715 513 b 349 -14 715 124 543 -14 b 107 46 268 -14 164 10 l 107 925 m 229 117 b 372 44 251 72 306 44 b 583 299 483 44 583 119 b 351 557 583 461 490 557 b 229 500 296 557 246 529 "},"c":{"ha":604,"x_min":0,"x_max":0,"o":"m 386 585 b 157 332 264 585 157 481 b 381 92 157 182 253 92 b 564 186 458 92 525 131 b 328 -14 550 74 456 -14 b 46 289 172 -14 46 113 b 389 639 46 488 207 639 b 554 531 493 639 554 592 b 463 449 554 485 511 449 "},"d":{"ha":783,"x_min":0,"x_max":0,"o":"m 776 54 l 532 -26 l 532 57 l 500 57 b 318 -14 450 18 390 -14 b 46 292 161 -14 46 113 b 396 639 46 501 221 639 b 532 613 436 639 485 632 l 532 925 l 396 989 l 654 1083 l 654 118 m 532 507 b 389 581 514 549 457 581 b 178 326 278 581 178 506 b 410 68 178 164 276 68 b 532 125 465 68 515 96 "},"e":{"ha":631,"x_min":0,"x_max":0,"o":"m 581 193 b 336 -14 557 54 456 -14 b 46 306 171 -14 46 121 b 344 639 46 479 181 639 b 589 378 497 639 589 519 l 144 378 b 143 351 143 369 143 361 b 379 96 143 199 251 96 b 581 193 463 96 528 122 m 324 571 b 153 429 247 571 178 521 l 461 429 b 324 571 461 515 406 571 "},"f":{"ha":440,"x_min":0,"x_max":0,"o":"m 136 501 l 15 568 l 136 639 b 521 1083 167 896 324 1083 b 633 999 588 1083 633 1047 b 554 925 633 957 600 925 l 443 1018 b 258 607 318 979 258 829 l 458 607 l 417 538 l 258 538 l 258 56 l 400 56 l 400 0 l 36 0 l 36 56 l 136 56 "},"g":{"ha":721,"x_min":0,"x_max":0,"o":"m 490 61 b 708 -99 621 61 708 8 b 282 -403 708 -276 494 -403 b 6 -237 132 -403 6 -344 b 176 -58 6 -153 99 -93 l 176 -33 b 94 75 135 -18 94 17 b 186 225 94 131 132 182 b 68 414 117 264 68 332 b 328 639 68 543 192 639 b 513 572 397 639 464 614 l 706 657 l 706 531 l 550 531 b 588 414 574 497 588 457 b 328 189 588 283 464 189 b 203 217 283 189 240 199 l 203 61 m 196 414 b 328 240 196 317 251 240 b 460 414 404 240 460 317 b 328 588 460 511 404 588 b 196 414 251 588 196 511 m 244 -50 b 128 -201 186 -75 128 -122 b 346 -339 128 -279 204 -339 b 603 -154 478 -339 603 -265 b 435 -50 603 -76 535 -50 "},"h":{"ha":781,"x_min":0,"x_max":0,"o":"m -7 989 l 251 1083 l 251 533 l 283 533 b 489 639 332 581 396 639 b 656 435 603 639 656 556 l 656 56 l 756 56 l 756 0 l 433 0 l 433 56 l 533 56 l 533 400 b 397 542 533 493 483 542 b 251 468 340 542 288 503 l 251 56 l 351 56 l 351 0 l 29 0 l 29 56 l 129 56 l 129 925 "},"i":{"ha":389,"x_min":0,"x_max":0,"o":"m 185 813 b 100 896 138 813 100 850 b 185 979 100 942 138 979 b 269 896 232 979 269 942 b 185 813 269 850 232 813 m 136 481 l 14 558 l 258 653 l 258 56 l 358 56 l 358 0 l 36 0 l 36 56 l 136 56 "},"j":{"ha":353,"x_min":0,"x_max":0,"o":"m 176 813 b 92 896 129 813 92 850 b 176 979 92 942 129 979 b 261 896 224 979 261 942 b 176 813 261 850 224 813 m -68 -403 b -146 -326 -117 -403 -146 -365 b -104 -257 -146 -300 -133 -274 l 26 -304 b 128 -54 74 -262 128 -185 l 128 481 l 6 558 l 250 653 l 250 -72 b -68 -403 200 -210 38 -403 "},"k":{"ha":756,"x_min":0,"x_max":0,"o":"m 129 925 l -7 989 l 251 1083 l 251 372 l 299 372 l 528 556 l 528 569 l 413 569 l 413 625 l 721 625 l 721 569 l 636 569 l 382 371 l 756 0 l 583 0 l 251 351 l 251 56 l 351 56 l 351 0 l 29 0 l 29 56 l 129 56 "},"l":{"ha":383,"x_min":0,"x_max":0,"o":"m 129 925 l -7 989 l 251 1083 l 251 56 l 351 56 l 351 0 l 29 0 l 29 56 l 129 56 "},"m":{"ha":1192,"x_min":0,"x_max":0,"o":"m 14 558 l 258 653 l 258 533 l 290 533 b 496 639 339 581 403 639 b 656 526 581 639 629 592 l 681 526 b 900 639 729 574 807 639 b 1067 435 1014 639 1067 556 l 1067 56 l 1167 56 l 1167 0 l 844 0 l 844 56 l 944 56 l 944 400 b 808 542 944 493 894 542 b 663 468 751 542 699 503 l 663 56 l 763 56 l 763 0 l 440 0 l 440 56 l 540 56 l 540 400 b 404 542 540 493 490 542 b 258 468 347 542 294 503 l 258 56 l 358 56 l 358 0 l 36 0 l 36 56 l 136 56 l 136 481 "},"n":{"ha":788,"x_min":0,"x_max":0,"o":"m 14 558 l 258 653 l 258 533 l 290 533 b 496 639 339 581 403 639 b 663 435 610 639 663 556 l 663 56 l 763 56 l 763 0 l 440 0 l 440 56 l 540 56 l 540 400 b 404 542 540 493 490 542 b 258 468 347 542 294 503 l 258 56 l 358 56 l 358 0 l 36 0 l 36 56 l 136 56 l 136 481 "},"o":{"ha":747,"x_min":0,"x_max":0,"o":"m 46 313 b 374 639 46 504 203 639 b 701 313 544 639 701 504 b 374 -14 701 121 544 -14 b 46 313 203 -14 46 121 m 181 313 b 374 40 181 154 272 40 b 567 313 475 40 567 154 b 374 585 567 471 475 585 b 181 313 272 585 181 468 "},"p":{"ha":782,"x_min":0,"x_max":0,"o":"m 6 558 l 250 653 l 250 564 l 276 564 b 464 639 326 603 392 639 b 736 333 626 639 736 513 b 397 -14 736 124 561 -14 b 250 13 346 -14 297 -7 l 250 -333 l 392 -333 l 392 -389 l 28 -389 l 28 -333 l 128 -333 l 128 481 m 250 117 b 393 44 272 72 326 44 b 604 299 504 44 604 119 b 372 557 604 461 511 557 b 250 500 317 557 267 529 l 250 117 "},"q":{"ha":756,"x_min":0,"x_max":0,"o":"m 532 57 l 500 57 b 318 -14 450 18 390 -14 b 46 292 161 -14 46 113 b 396 639 46 501 221 639 b 563 606 456 639 515 625 l 654 657 l 654 -333 l 754 -333 l 754 -389 l 390 -389 l 390 -333 l 532 -333 m 532 507 b 389 581 514 549 457 581 b 178 326 278 581 178 506 b 410 68 178 164 276 68 b 532 125 465 68 515 96 "},"r":{"ha":556,"x_min":0,"x_max":0,"o":"m 14 558 l 258 653 l 258 531 l 288 531 b 463 639 351 589 403 639 b 542 564 507 639 542 608 b 476 478 542 526 514 493 l 368 543 l 258 461 l 258 56 l 400 56 l 400 0 l 36 0 l 36 56 l 136 56 l 136 481 "},"s":{"ha":540,"x_min":0,"x_max":0,"o":"m 54 229 b 264 50 108 103 189 50 b 371 149 322 50 371 85 b 68 456 371 299 68 251 b 264 639 68 567 164 639 b 389 590 313 639 361 617 l 458 639 l 458 407 b 261 578 400 506 333 578 b 172 493 211 578 172 547 b 481 185 172 353 481 392 b 249 -14 481 72 376 -14 b 54 57 168 -14 92 18 "},"t":{"ha":513,"x_min":0,"x_max":0,"o":"m 240 758 l 240 607 l 481 607 l 439 538 l 240 538 l 240 210 b 357 79 240 117 293 79 b 499 140 410 79 454 97 b 293 -14 465 39 389 -14 b 124 157 201 -14 124 44 l 129 518 l 10 564 "},"u":{"ha":771,"x_min":0,"x_max":0,"o":"m 518 60 l 486 60 b 308 -14 436 21 376 -14 b 125 190 190 -14 125 69 l 125 563 l 17 563 l 17 618 l 247 633 l 247 225 b 396 68 247 122 310 68 b 518 125 451 68 501 96 l 518 563 l 410 563 l 410 618 l 640 633 l 640 118 l 763 54 l 518 -26 "},"v":{"ha":689,"x_min":0,"x_max":0,"o":"m 433 569 l 433 625 l 679 625 l 679 569 l 615 569 l 346 -42 l 74 569 l 10 569 l 10 625 l 319 625 l 319 569 l 208 569 l 375 158 l 549 569 "},"w":{"ha":988,"x_min":0,"x_max":0,"o":"m 732 569 l 732 625 l 978 625 l 978 569 l 914 569 l 658 -42 l 506 365 l 325 -42 l 74 569 l 10 569 l 10 625 l 289 625 l 289 569 l 204 569 l 358 161 l 479 433 l 428 569 l 364 569 l 364 625 l 657 625 l 657 569 l 546 569 l 688 164 l 847 569 "},"x":{"ha":717,"x_min":0,"x_max":0,"o":"m 303 315 l 110 569 l 36 569 l 36 625 l 346 625 l 346 569 l 244 569 l 389 381 l 540 569 l 433 569 l 433 625 l 679 625 l 679 569 l 611 569 l 419 339 l 635 56 l 708 56 l 708 0 l 399 0 l 399 56 l 500 56 l 336 272 l 163 56 l 286 56 l 286 0 l 10 0 l 10 56 l 92 56 "},"y":{"ha":689,"x_min":0,"x_max":0,"o":"m 433 569 l 433 625 l 679 625 l 679 569 l 615 569 l 267 -283 b 131 -403 240 -347 206 -403 b 40 -318 74 -403 40 -361 b 71 -251 40 -294 50 -271 l 197 -297 l 301 -40 l 74 569 l 10 569 l 10 625 l 319 625 l 319 569 l 208 569 l 368 103 l 549 569 "},"z":{"ha":635,"x_min":0,"x_max":0,"o":"m 453 51 l 607 264 l 575 0 l 21 0 l 424 574 l 217 574 l 44 404 l 100 681 l 153 625 l 589 625 l 194 51 "},"á":{"ha":628,"x_min":0,"x_max":0,"o":"m 378 440 b 192 549 378 514 339 590 l 192 421 l 40 421 b 351 639 89 540 228 639 b 492 482 428 639 492 585 l 492 161 b 557 83 492 107 518 83 b 628 115 583 83 608 93 b 494 -11 628 40 564 -11 b 379 74 431 -11 394 26 l 354 74 b 182 -10 318 40 258 -10 b 50 119 115 -10 50 39 b 219 294 50 210 135 261 l 378 357 l 378 440 m 299 279 b 171 151 215 244 171 215 b 258 76 171 103 208 76 b 378 129 306 76 344 97 l 378 313 m 258 683 l 361 1049 l 500 1049 "},"ă":{"ha":628,"x_min":0,"x_max":0,"o":"m 378 440 b 192 549 378 514 339 590 l 192 421 l 40 421 b 351 639 89 540 228 639 b 492 482 428 639 492 585 l 492 161 b 557 83 492 107 518 83 b 628 115 583 83 608 93 b 494 -11 628 40 564 -11 b 379 74 431 -11 394 26 l 354 74 b 182 -10 318 40 258 -10 b 50 119 115 -10 50 39 b 219 294 50 210 135 261 l 378 357 l 378 440 m 299 279 b 171 151 215 244 171 215 b 258 76 171 103 208 76 b 378 129 306 76 344 97 l 378 313 m 303 803 b 471 1067 385 803 433 904 b 303 711 499 883 428 711 b 135 1067 178 711 107 883 b 303 803 172 904 221 803 "},"â":{"ha":628,"x_min":0,"x_max":0,"o":"m 378 440 b 192 549 378 514 339 590 l 192 421 l 40 421 b 351 639 89 540 228 639 b 492 482 428 639 492 585 l 492 161 b 557 83 492 107 518 83 b 628 115 583 83 608 93 b 494 -11 628 40 564 -11 b 379 74 431 -11 394 26 l 354 74 b 182 -10 318 40 258 -10 b 50 119 115 -10 50 39 b 219 294 50 210 135 261 l 378 357 l 378 440 m 299 279 b 171 151 215 244 171 215 b 258 76 171 103 208 76 b 378 129 306 76 344 97 l 378 313 m 115 683 l 254 1049 l 349 1049 l 488 683 l 301 946 "},"ä":{"ha":628,"x_min":0,"x_max":0,"o":"m 378 440 b 192 549 378 514 339 590 l 192 421 l 40 421 b 351 639 89 540 228 639 b 492 482 428 639 492 585 l 492 161 b 557 83 492 107 518 83 b 628 115 583 83 608 93 b 494 -11 628 40 564 -11 b 379 74 431 -11 394 26 l 354 74 b 182 -10 318 40 258 -10 b 50 119 115 -10 50 39 b 219 294 50 210 135 261 l 378 357 l 378 440 m 299 279 b 171 151 215 244 171 215 b 258 76 171 103 208 76 b 378 129 306 76 344 97 l 378 313 m 432 804 b 354 881 388 804 354 838 b 432 957 354 924 388 957 b 511 881 476 957 511 924 b 432 804 511 838 476 804 m 175 804 b 97 881 131 804 97 838 b 175 957 97 924 131 957 b 254 881 219 957 254 924 b 175 804 254 838 219 804 "},"à":{"ha":628,"x_min":0,"x_max":0,"o":"m 378 440 b 192 549 378 514 339 590 l 192 421 l 40 421 b 351 639 89 540 228 639 b 492 482 428 639 492 585 l 492 161 b 557 83 492 107 518 83 b 628 115 583 83 608 93 b 494 -11 628 40 564 -11 b 379 74 431 -11 394 26 l 354 74 b 182 -10 318 40 258 -10 b 50 119 115 -10 50 39 b 219 294 50 210 135 261 l 378 357 l 378 440 m 299 279 b 171 151 215 244 171 215 b 258 76 171 103 208 76 b 378 129 306 76 344 97 l 378 313 m 279 1049 l 382 683 l 140 1049 "},"ā":{"ha":628,"x_min":0,"x_max":0,"o":"m 378 440 b 192 549 378 514 339 590 l 192 421 l 40 421 b 351 639 89 540 228 639 b 492 482 428 639 492 585 l 492 161 b 557 83 492 107 518 83 b 628 115 583 83 608 93 b 494 -11 628 40 564 -11 b 379 74 431 -11 394 26 l 354 74 b 182 -10 318 40 258 -10 b 50 119 115 -10 50 39 b 219 294 50 210 135 261 l 378 357 l 378 440 m 299 279 b 171 151 215 244 171 215 b 258 76 171 103 208 76 b 378 129 306 76 344 97 l 378 313 m 510 886 l 450 811 l 104 811 l 164 886 "},"ą":{"ha":628,"x_min":0,"x_max":0,"o":"m 378 440 b 192 549 378 514 339 590 l 192 421 l 40 421 b 351 639 89 540 228 639 b 492 482 428 639 492 585 l 492 161 b 557 83 492 107 518 83 b 628 115 583 83 608 93 b 538 -18 628 58 586 22 b 415 -218 474 -71 415 -143 b 510 -297 415 -272 444 -297 l 572 -297 b 439 -371 525 -342 489 -371 b 331 -262 379 -371 331 -333 b 503 -11 331 -186 410 -85 b 379 74 436 -11 394 25 l 354 74 b 182 -10 318 40 258 -10 b 50 119 115 -10 50 39 b 219 294 50 210 135 261 l 378 357 l 378 440 m 299 279 b 171 151 215 244 171 215 b 258 76 171 103 208 76 b 378 129 306 76 344 97 l 378 313 "},"å":{"ha":628,"x_min":0,"x_max":0,"o":"m 378 440 b 192 549 378 514 339 590 l 192 421 l 40 421 b 351 639 89 540 228 639 b 492 482 428 639 492 585 l 492 161 b 557 83 492 107 518 83 b 628 115 583 83 608 93 b 494 -11 628 40 564 -11 b 379 74 431 -11 394 26 l 354 74 b 182 -10 318 40 258 -10 b 50 119 115 -10 50 39 b 219 294 50 210 135 261 l 378 357 l 378 440 m 299 279 b 171 151 215 244 171 215 b 258 76 171 103 208 76 b 378 129 306 76 344 97 l 378 313 m 299 1015 b 438 876 375 1015 438 953 b 299 739 438 801 375 739 b 160 876 222 739 160 801 b 299 1015 160 953 222 1015 m 299 963 b 213 876 250 963 213 925 b 299 792 213 829 250 792 b 385 876 347 792 385 829 b 299 963 385 925 347 963 "},"ã":{"ha":628,"x_min":0,"x_max":0,"o":"m 378 440 b 192 549 378 514 339 590 l 192 421 l 40 421 b 351 639 89 540 228 639 b 492 482 428 639 492 585 l 492 161 b 557 83 492 107 518 83 b 628 115 583 83 608 93 b 494 -11 628 40 564 -11 b 379 74 431 -11 394 26 l 354 74 b 182 -10 318 40 258 -10 b 50 119 115 -10 50 39 b 219 294 50 210 135 261 l 378 357 l 378 440 m 299 279 b 171 151 215 244 171 215 b 258 76 171 103 208 76 b 378 129 306 76 344 97 l 378 313 m 233 858 b 60 732 189 858 125 801 l 164 960 l 379 894 b 553 1021 424 894 488 951 l 449 793 "},"æ":{"ha":943,"x_min":0,"x_max":0,"o":"m 901 193 b 657 -14 878 54 776 -14 b 425 107 561 -14 478 32 l 404 107 b 203 -10 364 42 288 -10 b 50 133 115 -10 50 51 b 310 335 50 239 131 297 l 369 347 b 392 435 374 378 381 407 b 192 549 389 507 336 593 l 192 421 l 40 421 b 351 639 89 540 228 639 b 476 560 406 639 453 613 b 665 639 528 608 594 639 b 906 414 818 639 899 538 l 465 321 b 700 96 479 185 581 96 b 901 193 783 96 849 122 m 782 433 b 644 571 782 515 726 571 b 464 367 553 571 471 499 l 782 433 m 168 167 b 261 76 168 115 206 76 b 403 144 311 76 365 99 b 367 301 379 192 367 246 l 317 290 b 168 167 210 268 168 231 "},"ǽ":{"ha":943,"x_min":0,"x_max":0,"o":"m 901 193 b 657 -14 878 54 776 -14 b 425 107 561 -14 478 32 l 404 107 b 203 -10 364 42 288 -10 b 50 133 115 -10 50 51 b 310 335 50 239 131 297 l 369 347 b 392 435 374 378 381 407 b 192 549 389 507 336 593 l 192 421 l 40 421 b 351 639 89 540 228 639 b 476 560 406 639 453 613 b 665 639 528 608 594 639 b 906 414 818 639 899 538 l 465 321 b 700 96 479 185 581 96 b 901 193 783 96 849 122 m 782 433 b 644 571 782 515 726 571 b 464 367 553 571 471 499 l 782 433 m 168 167 b 261 76 168 115 206 76 b 403 144 311 76 365 99 b 367 301 379 192 367 246 l 317 290 b 168 167 210 268 168 231 m 471 683 l 574 1049 l 713 1049 "},"ć":{"ha":604,"x_min":0,"x_max":0,"o":"m 386 585 b 157 332 264 585 157 481 b 381 92 157 182 253 92 b 564 186 458 92 525 131 b 328 -14 550 74 456 -14 b 46 289 172 -14 46 113 b 389 639 46 488 207 639 b 554 531 493 639 554 592 b 463 449 554 485 511 449 m 288 683 l 390 1049 l 529 1049 "},"č":{"ha":604,"x_min":0,"x_max":0,"o":"m 386 585 b 157 332 264 585 157 481 b 381 92 157 182 253 92 b 564 186 458 92 525 131 b 328 -14 550 74 456 -14 b 46 289 172 -14 46 113 b 389 639 46 488 207 639 b 554 531 493 639 554 592 b 463 449 554 485 511 449 m 542 1088 l 403 722 l 308 722 l 169 1088 l 356 825 "},"ç":{"ha":604,"x_min":0,"x_max":0,"o":"m 233 -371 b 154 -315 185 -371 154 -347 b 218 -257 154 -281 183 -257 l 275 -337 b 361 -247 313 -331 361 -292 b 221 -144 361 -196 297 -164 l 300 -12 b 46 289 157 1 46 124 b 389 639 46 488 207 639 b 554 531 493 639 554 592 b 463 449 554 485 511 449 l 386 585 b 157 332 264 585 157 481 b 381 92 157 182 253 92 b 564 186 458 92 525 131 b 328 -14 550 74 456 -14 b 318 -14 325 -14 322 -14 l 313 -79 b 439 -210 376 -107 439 -139 b 233 -371 439 -292 319 -371 "},"ĉ":{"ha":604,"x_min":0,"x_max":0,"o":"m 386 585 b 157 332 264 585 157 481 b 381 92 157 182 253 92 b 564 186 458 92 525 131 b 328 -14 550 74 456 -14 b 46 289 172 -14 46 113 b 389 639 46 488 207 639 b 554 531 493 639 554 592 b 463 449 554 485 511 449 m 144 683 l 283 1049 l 378 1049 l 517 683 l 331 946 "},"ċ":{"ha":604,"x_min":0,"x_max":0,"o":"m 386 585 b 157 332 264 585 157 481 b 381 92 157 182 253 92 b 564 186 458 92 525 131 b 328 -14 550 74 456 -14 b 46 289 172 -14 46 113 b 389 639 46 488 207 639 b 554 531 493 639 554 592 b 463 449 554 485 511 449 m 340 813 b 256 896 293 813 256 850 b 340 979 256 942 293 979 b 425 896 388 979 425 942 b 340 813 425 850 388 813 "},"ď":{"ha":936,"x_min":0,"x_max":0,"o":"m 776 54 l 532 -26 l 532 57 l 500 57 b 318 -14 450 18 390 -14 b 46 292 161 -14 46 113 b 396 639 46 501 221 639 b 532 613 436 639 485 632 l 532 925 l 396 989 l 654 1083 l 654 118 m 532 507 b 389 581 514 549 457 581 b 178 326 278 581 178 506 b 410 68 178 164 276 68 b 532 125 465 68 515 96 m 742 704 l 803 1069 l 928 1069 "},"đ":{"ha":783,"x_min":0,"x_max":0,"o":"m 776 54 l 532 -26 l 532 57 l 500 57 b 318 -14 450 18 390 -14 b 46 292 161 -14 46 113 b 396 639 46 501 221 639 b 532 613 436 639 485 632 l 532 769 l 313 769 l 332 819 l 532 819 l 532 925 l 396 989 l 654 1083 l 654 819 l 757 819 l 738 769 l 654 769 l 654 118 m 532 507 b 389 581 514 549 457 581 b 178 326 278 581 178 506 b 410 68 178 164 276 68 b 532 125 465 68 515 96 "},"é":{"ha":631,"x_min":0,"x_max":0,"o":"m 581 193 b 336 -14 557 54 456 -14 b 46 306 171 -14 46 121 b 344 639 46 479 181 639 b 589 378 497 639 589 519 l 144 378 b 143 351 143 369 143 361 b 379 96 143 199 251 96 b 581 193 463 96 528 122 m 324 571 b 153 429 247 571 178 521 l 461 429 b 324 571 461 515 406 571 m 297 683 l 400 1049 l 539 1049 "},"ĕ":{"ha":631,"x_min":0,"x_max":0,"o":"m 581 193 b 336 -14 557 54 456 -14 b 46 306 171 -14 46 121 b 344 639 46 479 181 639 b 589 378 497 639 589 519 l 144 378 b 143 351 143 369 143 361 b 379 96 143 199 251 96 b 581 193 463 96 528 122 m 324 571 b 153 429 247 571 178 521 l 461 429 b 324 571 461 515 406 571 m 333 803 b 501 1067 415 803 464 904 b 333 711 529 883 458 711 b 165 1067 208 711 138 883 b 333 803 203 904 251 803 "},"ě":{"ha":631,"x_min":0,"x_max":0,"o":"m 581 193 b 336 -14 557 54 456 -14 b 46 306 171 -14 46 121 b 344 639 46 479 181 639 b 589 378 497 639 589 519 l 144 378 b 143 351 143 369 143 361 b 379 96 143 199 251 96 b 581 193 463 96 528 122 m 324 571 b 153 429 247 571 178 521 l 461 429 b 324 571 461 515 406 571 m 519 1088 l 381 722 l 286 722 l 147 1088 l 333 825 "},"ê":{"ha":631,"x_min":0,"x_max":0,"o":"m 581 193 b 336 -14 557 54 456 -14 b 46 306 171 -14 46 121 b 344 639 46 479 181 639 b 589 378 497 639 589 519 l 144 378 b 143 351 143 369 143 361 b 379 96 143 199 251 96 b 581 193 463 96 528 122 m 324 571 b 153 429 247 571 178 521 l 461 429 b 324 571 461 515 406 571 m 153 683 l 292 1049 l 386 1049 l 525 683 l 339 946 "},"ë":{"ha":631,"x_min":0,"x_max":0,"o":"m 581 193 b 336 -14 557 54 456 -14 b 46 306 171 -14 46 121 b 344 639 46 479 181 639 b 589 378 497 639 589 519 l 144 378 b 143 351 143 369 143 361 b 379 96 143 199 251 96 b 581 193 463 96 528 122 m 324 571 b 153 429 247 571 178 521 l 461 429 b 324 571 461 515 406 571 m 460 804 b 382 881 415 804 382 838 b 460 957 382 924 415 957 b 539 881 504 957 539 924 b 460 804 539 838 504 804 m 203 804 b 125 881 158 804 125 838 b 203 957 125 924 158 957 b 282 881 247 957 282 924 b 203 804 282 838 247 804 "},"ė":{"ha":631,"x_min":0,"x_max":0,"o":"m 581 193 b 336 -14 557 54 456 -14 b 46 306 171 -14 46 121 b 344 639 46 479 181 639 b 589 378 497 639 589 519 l 144 378 b 143 351 143 369 143 361 b 379 96 143 199 251 96 b 581 193 463 96 528 122 m 324 571 b 153 429 247 571 178 521 l 461 429 b 324 571 461 515 406 571 m 338 813 b 253 896 290 813 253 850 b 338 979 253 942 290 979 b 422 896 385 979 422 942 b 338 813 422 850 385 813 "},"è":{"ha":631,"x_min":0,"x_max":0,"o":"m 581 193 b 336 -14 557 54 456 -14 b 46 306 171 -14 46 121 b 344 639 46 479 181 639 b 589 378 497 639 589 519 l 144 378 b 143 351 143 369 143 361 b 379 96 143 199 251 96 b 581 193 463 96 528 122 m 324 571 b 153 429 247 571 178 521 l 461 429 b 324 571 461 515 406 571 m 290 1049 l 393 683 l 151 1049 "},"ē":{"ha":631,"x_min":0,"x_max":0,"o":"m 581 193 b 336 -14 557 54 456 -14 b 46 306 171 -14 46 121 b 344 639 46 479 181 639 b 589 378 497 639 589 519 l 144 378 b 143 351 143 369 143 361 b 379 96 143 199 251 96 b 581 193 463 96 528 122 m 324 571 b 153 429 247 571 178 521 l 461 429 b 324 571 461 515 406 571 m 557 886 l 497 811 l 151 811 l 211 886 "},"ę":{"ha":631,"x_min":0,"x_max":0,"o":"m 456 8 b 304 -218 392 -42 304 -133 b 399 -297 304 -272 333 -297 l 461 -297 b 328 -371 414 -342 378 -371 b 219 -262 268 -371 219 -333 b 396 -8 219 -178 311 -72 b 336 -14 376 -11 357 -14 b 46 306 171 -14 46 121 b 344 639 46 479 181 639 b 589 378 497 639 589 519 l 144 378 b 143 351 143 369 143 361 b 379 96 143 199 251 96 b 581 193 463 96 528 122 b 456 8 567 110 513 53 m 324 571 b 153 429 247 571 178 521 l 461 429 b 324 571 461 515 406 571 "},"ð":{"ha":747,"x_min":0,"x_max":0,"o":"m 144 801 l 353 881 b 71 1083 265 967 163 1043 b 453 918 210 1079 344 1015 l 600 974 l 600 915 l 496 876 b 696 403 617 749 696 578 b 374 -14 696 147 547 -14 b 46 313 203 -14 46 121 b 361 639 46 504 197 639 b 526 561 431 639 492 604 l 561 561 b 394 838 543 644 479 744 l 144 743 m 181 313 b 374 40 181 154 272 40 b 567 313 475 40 567 154 b 374 585 567 471 475 585 b 181 313 272 585 181 468 "},"ğ":{"ha":721,"x_min":0,"x_max":0,"o":"m 490 61 b 708 -99 621 61 708 8 b 282 -403 708 -276 494 -403 b 6 -237 132 -403 6 -344 b 176 -58 6 -153 99 -93 l 176 -33 b 94 75 135 -18 94 17 b 186 225 94 131 132 182 b 68 414 117 264 68 332 b 328 639 68 543 192 639 b 513 572 397 639 464 614 l 706 657 l 706 531 l 550 531 b 588 414 574 497 588 457 b 328 189 588 283 464 189 b 203 217 283 189 240 199 l 203 61 m 196 414 b 328 240 196 317 251 240 b 460 414 404 240 460 317 b 328 588 460 511 404 588 b 196 414 251 588 196 511 m 244 -50 b 128 -201 186 -75 128 -122 b 346 -339 128 -279 204 -339 b 603 -154 478 -339 603 -265 b 435 -50 603 -76 535 -50 m 344 803 b 513 1067 426 803 475 904 b 344 711 540 883 469 711 b 176 1067 219 711 149 883 b 344 803 214 904 263 803 "},"ĝ":{"ha":721,"x_min":0,"x_max":0,"o":"m 490 61 b 708 -99 621 61 708 8 b 282 -403 708 -276 494 -403 b 6 -237 132 -403 6 -344 b 176 -58 6 -153 99 -93 l 176 -33 b 94 75 135 -18 94 17 b 186 225 94 131 132 182 b 68 414 117 264 68 332 b 328 639 68 543 192 639 b 513 572 397 639 464 614 l 706 657 l 706 531 l 550 531 b 588 414 574 497 588 457 b 328 189 588 283 464 189 b 203 217 283 189 240 199 l 203 61 m 196 414 b 328 240 196 317 251 240 b 460 414 404 240 460 317 b 328 588 460 511 404 588 b 196 414 251 588 196 511 m 244 -50 b 128 -201 186 -75 128 -122 b 346 -339 128 -279 204 -339 b 603 -154 478 -339 603 -265 b 435 -50 603 -76 535 -50 m 158 683 l 297 1049 l 392 1049 l 531 683 l 344 946 "},"ģ":{"ha":721,"x_min":0,"x_max":0,"o":"m 490 61 b 708 -99 621 61 708 8 b 282 -403 708 -276 494 -403 b 6 -237 132 -403 6 -344 b 176 -58 6 -153 99 -93 l 176 -33 b 94 75 135 -18 94 17 b 186 225 94 131 132 182 b 68 414 117 264 68 332 b 328 639 68 543 192 639 b 513 572 397 639 464 614 l 706 657 l 706 531 l 550 531 b 588 414 574 497 588 457 b 328 189 588 283 464 189 b 203 217 283 189 240 199 l 203 61 m 196 414 b 328 240 196 317 251 240 b 460 414 404 240 460 317 b 328 588 460 511 404 588 b 196 414 251 588 196 511 m 244 -50 b 128 -201 186 -75 128 -122 b 346 -339 128 -279 204 -339 b 603 -154 478 -339 603 -265 b 435 -50 603 -76 535 -50 m 428 819 b 343 746 428 782 396 746 b 244 849 281 746 244 794 b 463 1028 244 946 350 1028 b 322 875 383 989 329 926 l 400 875 b 428 819 418 864 428 843 "},"ġ":{"ha":721,"x_min":0,"x_max":0,"o":"m 490 61 b 708 -99 621 61 708 8 b 282 -403 708 -276 494 -403 b 6 -237 132 -403 6 -344 b 176 -58 6 -153 99 -93 l 176 -33 b 94 75 135 -18 94 17 b 186 225 94 131 132 182 b 68 414 117 264 68 332 b 328 639 68 543 192 639 b 513 572 397 639 464 614 l 706 657 l 706 531 l 550 531 b 588 414 574 497 588 457 b 328 189 588 283 464 189 b 203 217 283 189 240 199 l 203 61 m 196 414 b 328 240 196 317 251 240 b 460 414 404 240 460 317 b 328 588 460 511 404 588 b 196 414 251 588 196 511 m 244 -50 b 128 -201 186 -75 128 -122 b 346 -339 128 -279 204 -339 b 603 -154 478 -339 603 -265 b 435 -50 603 -76 535 -50 m 344 813 b 260 896 297 813 260 850 b 344 979 260 942 297 979 b 429 896 392 979 429 942 b 344 813 429 850 392 813 "},"ß":{"ha":840,"x_min":0,"x_max":0,"o":"m 557 28 b 696 175 629 33 696 96 b 428 543 696 299 428 365 b 629 882 428 671 517 775 b 479 1032 629 953 561 1032 b 258 611 321 1032 258 833 l 258 0 l 36 0 l 36 56 l 136 56 l 136 501 l 15 568 l 136 639 b 507 1083 167 896 310 1083 b 756 908 626 1083 731 1017 b 511 601 613 814 511 706 b 796 215 511 454 796 408 b 539 -14 796 89 664 -14 b 392 85 443 -14 392 31 b 482 168 392 133 435 168 l 557 28 "},"ħ":{"ha":781,"x_min":0,"x_max":0,"o":"m 251 769 l 251 533 l 283 533 b 489 639 332 581 396 639 b 656 435 603 639 656 556 l 656 56 l 756 56 l 756 0 l 433 0 l 433 56 l 533 56 l 533 400 b 397 542 533 493 483 542 b 251 468 340 542 288 503 l 251 56 l 351 56 l 351 0 l 29 0 l 29 56 l 129 56 l 129 769 l -3 769 l 17 819 l 129 819 l 129 925 l -7 989 l 251 1083 l 251 819 l 442 819 l 422 769 "},"ĥ":{"ha":781,"x_min":0,"x_max":0,"o":"m -7 989 l 251 1083 l 251 533 l 283 533 b 489 639 332 581 396 639 b 656 435 603 639 656 556 l 656 56 l 756 56 l 756 0 l 433 0 l 433 56 l 533 56 l 533 400 b 397 542 533 493 483 542 b 251 468 340 542 288 503 l 251 56 l 351 56 l 351 0 l 29 0 l 29 56 l 129 56 l 129 925 m 447 1351 l 631 1111 l 386 1265 l 142 1111 l 325 1351 "},"ı":{"ha":389,"x_min":0,"x_max":0,"o":"m 136 481 l 14 558 l 258 653 l 258 56 l 358 56 l 358 0 l 36 0 l 36 56 l 136 56 "},"í":{"ha":389,"x_min":0,"x_max":0,"o":"m 136 481 l 14 558 l 258 653 l 258 56 l 358 56 l 358 0 l 36 0 l 36 56 l 136 56 m 133 683 l 236 1049 l 375 1049 "},"ĭ":{"ha":389,"x_min":0,"x_max":0,"o":"m 136 481 l 14 558 l 258 653 l 258 56 l 358 56 l 358 0 l 36 0 l 36 56 l 136 56 m 186 803 b 354 1067 268 803 317 904 b 186 711 382 883 311 711 b 18 1067 61 711 -10 883 b 186 803 56 904 104 803 "},"î":{"ha":389,"x_min":0,"x_max":0,"o":"m 136 481 l 14 558 l 258 653 l 258 56 l 358 56 l 358 0 l 36 0 l 36 56 l 136 56 m 0 683 l 139 1049 l 233 1049 l 372 683 l 186 946 "},"ï":{"ha":389,"x_min":0,"x_max":0,"o":"m 136 481 l 14 558 l 258 653 l 258 56 l 358 56 l 358 0 l 36 0 l 36 56 l 136 56 m 314 804 b 236 881 269 804 236 838 b 314 957 236 924 269 957 b 393 881 358 957 393 924 b 314 804 393 838 358 804 m 57 804 b -21 881 13 804 -21 838 b 57 957 -21 924 13 957 b 136 881 101 957 136 924 b 57 804 136 838 101 804 "},"ì":{"ha":389,"x_min":0,"x_max":0,"o":"m 136 481 l 14 558 l 258 653 l 258 56 l 358 56 l 358 0 l 36 0 l 36 56 l 136 56 m 146 1049 l 249 683 l 7 1049 "},"ī":{"ha":389,"x_min":0,"x_max":0,"o":"m 136 481 l 14 558 l 258 653 l 258 56 l 358 56 l 358 0 l 36 0 l 36 56 l 136 56 m 408 886 l 349 811 l 3 811 l 63 886 "},"į":{"ha":389,"x_min":0,"x_max":0,"o":"m 185 813 b 100 896 138 813 100 850 b 185 979 100 942 138 979 b 269 896 232 979 269 942 b 185 813 269 850 232 813 m 136 481 l 14 558 l 258 653 l 258 56 l 358 56 l 358 0 l 283 0 b 143 -218 210 -61 143 -150 b 238 -297 143 -272 172 -297 l 300 -297 b 167 -371 253 -342 217 -371 b 58 -262 107 -371 58 -333 b 244 0 58 -182 146 -75 l 36 0 l 36 56 l 136 56 "},"ĩ":{"ha":389,"x_min":0,"x_max":0,"o":"m 136 481 l 14 558 l 258 653 l 258 56 l 358 56 l 358 0 l 36 0 l 36 56 l 136 56 m 118 858 b -56 732 74 858 10 801 l 49 960 l 264 894 b 438 1021 308 894 372 951 l 333 793 "},"ȷ":{"ha":353,"x_min":0,"x_max":0,"o":"m -68 -403 b -146 -326 -117 -403 -146 -365 b -104 -257 -146 -300 -133 -274 l 26 -304 b 128 -54 74 -262 128 -185 l 128 481 l 6 558 l 250 653 l 250 -72 b -68 -403 200 -210 38 -403 "},"ĵ":{"ha":353,"x_min":0,"x_max":0,"o":"m -68 -403 b -146 -326 -117 -403 -146 -365 b -104 -257 -146 -300 -133 -274 l 26 -304 b 128 -54 74 -262 128 -185 l 128 481 l 6 558 l 250 653 l 250 -72 b -68 -403 200 -210 38 -403 m -10 683 l 129 1049 l 224 1049 l 363 683 l 176 946 "},"ķ":{"ha":756,"x_min":0,"x_max":0,"o":"m 129 925 l -7 989 l 251 1083 l 251 372 l 299 372 l 528 556 l 528 569 l 413 569 l 413 625 l 721 625 l 721 569 l 636 569 l 382 371 l 756 0 l 583 0 l 251 351 l 251 56 l 351 56 l 351 0 l 29 0 l 29 56 l 129 56 m 311 -164 b 396 -90 311 -126 343 -90 b 494 -193 458 -90 494 -139 b 276 -372 494 -290 389 -372 b 417 -219 356 -333 410 -271 l 339 -219 b 311 -164 321 -208 311 -187 "},"ĸ":{"ha":763,"x_min":0,"x_max":0,"o":"m 136 481 l 14 558 l 258 653 l 258 372 l 306 372 l 535 556 l 535 569 l 419 569 l 419 625 l 728 625 l 728 569 l 643 569 l 389 371 l 763 0 l 590 0 l 258 351 l 258 56 l 358 56 l 358 0 l 36 0 l 36 56 l 136 56 "},"ĺ":{"ha":383,"x_min":0,"x_max":0,"o":"m 129 925 l -7 989 l 251 1083 l 251 56 l 351 56 l 351 0 l 29 0 l 29 56 l 129 56 m 88 1110 l 333 1328 l 471 1260 "},"ľ":{"ha":532,"x_min":0,"x_max":0,"o":"m 129 925 l -7 989 l 251 1083 l 251 56 l 351 56 l 351 0 l 29 0 l 29 56 l 129 56 m 338 704 l 399 1069 l 524 1069 "},"ļ":{"ha":383,"x_min":0,"x_max":0,"o":"m 129 925 l -7 989 l 251 1083 l 251 56 l 351 56 l 351 0 l 29 0 l 29 56 l 129 56 m 100 -164 b 185 -90 100 -126 132 -90 b 283 -193 247 -90 283 -139 b 65 -372 283 -290 178 -372 b 206 -219 144 -333 199 -271 l 128 -219 b 100 -164 110 -208 100 -187 "},"ŀ":{"ha":557,"x_min":0,"x_max":0,"o":"m 129 925 l -7 989 l 251 1083 l 251 56 l 351 56 l 351 0 l 29 0 l 29 56 l 129 56 m 454 413 b 369 496 407 413 369 450 b 454 579 369 542 407 579 b 539 496 501 579 539 542 b 454 413 539 450 501 413 "},"ł":{"ha":439,"x_min":0,"x_max":0,"o":"m 157 414 l 29 331 l 29 393 l 157 476 l 157 925 l 21 989 l 279 1083 l 279 540 l 407 624 l 407 561 l 279 478 l 279 56 l 379 56 l 379 0 l 57 0 l 57 56 l 157 56 "},"ń":{"ha":788,"x_min":0,"x_max":0,"o":"m 14 558 l 258 653 l 258 533 l 290 533 b 496 639 339 581 403 639 b 663 435 610 639 663 556 l 663 56 l 763 56 l 763 0 l 440 0 l 440 56 l 540 56 l 540 400 b 404 542 540 493 490 542 b 258 468 347 542 294 503 l 258 56 l 358 56 l 358 0 l 36 0 l 36 56 l 136 56 l 136 481 m 351 683 l 454 1049 l 593 1049 "},"ň":{"ha":788,"x_min":0,"x_max":0,"o":"m 14 558 l 258 653 l 258 533 l 290 533 b 496 639 339 581 403 639 b 663 435 610 639 663 556 l 663 56 l 763 56 l 763 0 l 440 0 l 440 56 l 540 56 l 540 400 b 404 542 540 493 490 542 b 258 468 347 542 294 503 l 258 56 l 358 56 l 358 0 l 36 0 l 36 56 l 136 56 l 136 481 m 585 1088 l 446 722 l 351 722 l 213 1088 l 399 825 "},"ņ":{"ha":788,"x_min":0,"x_max":0,"o":"m 14 558 l 258 653 l 258 533 l 290 533 b 496 639 339 581 403 639 b 663 435 610 639 663 556 l 663 56 l 763 56 l 763 0 l 440 0 l 440 56 l 540 56 l 540 400 b 404 542 540 493 490 542 b 258 468 347 542 294 503 l 258 56 l 358 56 l 358 0 l 36 0 l 36 56 l 136 56 l 136 481 m 308 -164 b 393 -90 308 -126 340 -90 b 492 -193 456 -90 492 -139 b 274 -372 492 -290 386 -372 b 414 -219 353 -333 407 -271 l 336 -219 b 308 -164 318 -208 308 -187 "},"ñ":{"ha":788,"x_min":0,"x_max":0,"o":"m 14 558 l 258 653 l 258 533 l 290 533 b 496 639 339 581 403 639 b 663 435 610 639 663 556 l 663 56 l 763 56 l 763 0 l 440 0 l 440 56 l 540 56 l 540 400 b 404 542 540 493 490 542 b 258 468 347 542 294 503 l 258 56 l 358 56 l 358 0 l 36 0 l 36 56 l 136 56 l 136 481 m 325 858 b 151 732 281 858 217 801 l 256 960 l 471 894 b 644 1021 515 894 579 951 l 540 793 "},"ŋ":{"ha":765,"x_min":0,"x_max":0,"o":"m 663 -72 b 344 -403 613 -210 450 -403 b 267 -326 296 -403 267 -365 b 308 -257 267 -300 279 -274 l 439 -304 b 540 -54 486 -262 540 -185 l 540 400 b 404 542 540 493 490 542 b 258 468 347 542 294 503 l 258 56 l 358 56 l 358 0 l 36 0 l 36 56 l 136 56 l 136 481 l 14 558 l 258 653 l 258 533 l 290 533 b 496 639 339 581 403 639 b 663 435 610 639 663 556 l 663 -72 "},"ó":{"ha":747,"x_min":0,"x_max":0,"o":"m 46 313 b 374 639 46 504 203 639 b 701 313 544 639 701 504 b 374 -14 701 121 544 -14 b 46 313 203 -14 46 121 m 181 313 b 374 40 181 154 272 40 b 567 313 475 40 567 154 b 374 585 567 471 475 585 b 181 313 272 585 181 468 m 308 683 l 411 1049 l 550 1049 "},"ŏ":{"ha":747,"x_min":0,"x_max":0,"o":"m 46 313 b 374 639 46 504 203 639 b 701 313 544 639 701 504 b 374 -14 701 121 544 -14 b 46 313 203 -14 46 121 m 181 313 b 374 40 181 154 272 40 b 567 313 475 40 567 154 b 374 585 567 471 475 585 b 181 313 272 585 181 468 m 374 803 b 542 1067 456 803 504 904 b 374 711 569 883 499 711 b 206 1067 249 711 178 883 b 374 803 243 904 292 803 "},"ô":{"ha":747,"x_min":0,"x_max":0,"o":"m 46 313 b 374 639 46 504 203 639 b 701 313 544 639 701 504 b 374 -14 701 121 544 -14 b 46 313 203 -14 46 121 m 181 313 b 374 40 181 154 272 40 b 567 313 475 40 567 154 b 374 585 567 471 475 585 b 181 313 272 585 181 468 m 188 683 l 326 1049 l 421 1049 l 560 683 l 374 946 "},"ö":{"ha":747,"x_min":0,"x_max":0,"o":"m 46 313 b 374 639 46 504 203 639 b 701 313 544 639 701 504 b 374 -14 701 121 544 -14 b 46 313 203 -14 46 121 m 181 313 b 374 40 181 154 272 40 b 567 313 475 40 567 154 b 374 585 567 471 475 585 b 181 313 272 585 181 468 m 501 804 b 424 881 457 804 424 838 b 501 957 424 924 457 957 b 581 881 546 957 581 924 b 501 804 581 838 546 804 m 244 804 b 167 881 200 804 167 838 b 244 957 167 924 200 957 b 324 881 289 957 324 924 b 244 804 324 838 289 804 "},"ò":{"ha":747,"x_min":0,"x_max":0,"o":"m 46 313 b 374 639 46 504 203 639 b 701 313 544 639 701 504 b 374 -14 701 121 544 -14 b 46 313 203 -14 46 121 m 181 313 b 374 40 181 154 272 40 b 567 313 475 40 567 154 b 374 585 567 471 475 585 b 181 313 272 585 181 468 m 336 1049 l 439 683 l 197 1049 "},"ő":{"ha":747,"x_min":0,"x_max":0,"o":"m 46 313 b 374 639 46 504 203 639 b 701 313 544 639 701 504 b 374 -14 701 121 544 -14 b 46 313 203 -14 46 121 m 181 313 b 374 40 181 154 272 40 b 567 313 475 40 567 154 b 374 585 567 471 475 585 b 181 313 272 585 181 468 m 264 683 l 367 1049 l 492 1049 m 458 683 l 561 1049 l 686 1049 "},"ō":{"ha":747,"x_min":0,"x_max":0,"o":"m 46 313 b 374 639 46 504 203 639 b 701 313 544 639 701 504 b 374 -14 701 121 544 -14 b 46 313 203 -14 46 121 m 181 313 b 374 40 181 154 272 40 b 567 313 475 40 567 154 b 374 585 567 471 475 585 b 181 313 272 585 181 468 m 576 886 l 517 811 l 171 811 l 231 886 "},"ø":{"ha":747,"x_min":0,"x_max":0,"o":"m 46 313 b 374 639 46 504 203 639 b 542 593 433 639 492 622 l 606 685 l 668 685 l 583 564 b 701 313 654 506 701 418 b 374 -14 701 121 544 -14 b 211 29 315 -14 260 1 l 142 -69 l 79 -69 l 168 58 b 46 313 94 115 46 206 m 181 313 b 225 139 181 244 197 185 l 494 525 b 374 585 461 563 418 585 b 181 313 272 585 181 468 m 567 313 b 525 481 567 378 551 436 l 257 96 b 374 40 290 61 331 40 b 567 313 475 40 567 154 "},"ǿ":{"ha":747,"x_min":0,"x_max":0,"o":"m 46 313 b 374 639 46 504 203 639 b 542 593 433 639 492 622 l 606 685 l 668 685 l 583 564 b 701 313 654 506 701 418 b 374 -14 701 121 544 -14 b 211 29 315 -14 260 1 l 142 -69 l 79 -69 l 168 58 b 46 313 94 115 46 206 m 181 313 b 225 139 181 244 197 185 l 494 525 b 374 585 461 563 418 585 b 181 313 272 585 181 468 m 567 313 b 525 481 567 378 551 436 l 257 96 b 374 40 290 61 331 40 b 567 313 475 40 567 154 m 308 683 l 411 1049 l 550 1049 "},"õ":{"ha":747,"x_min":0,"x_max":0,"o":"m 46 313 b 374 639 46 504 203 639 b 701 313 544 639 701 504 b 374 -14 701 121 544 -14 b 46 313 203 -14 46 121 m 181 313 b 374 40 181 154 272 40 b 567 313 475 40 567 154 b 374 585 567 471 475 585 b 181 313 272 585 181 468 m 313 858 b 139 732 268 858 204 801 l 243 960 l 458 894 b 632 1021 503 894 567 951 l 528 793 "},"œ":{"ha":1163,"x_min":0,"x_max":0,"o":"m 649 506 b 876 639 700 590 788 639 b 1121 378 1029 639 1121 519 l 676 378 b 675 351 675 369 675 361 b 911 96 675 199 783 96 b 1113 193 994 96 1060 122 b 868 -14 1089 54 988 -14 b 647 111 778 -14 700 33 l 619 111 b 374 -14 557 32 476 -14 b 46 313 203 -14 46 121 b 374 639 46 504 203 639 b 622 506 483 639 560 589 m 181 313 b 374 40 181 154 272 40 b 567 313 475 40 567 154 b 374 585 567 471 475 585 b 181 313 272 585 181 468 m 856 571 b 685 429 779 571 710 521 l 993 429 b 856 571 993 515 938 571 "},"ŕ":{"ha":556,"x_min":0,"x_max":0,"o":"m 14 558 l 258 653 l 258 531 l 288 531 b 463 639 351 589 403 639 b 542 564 507 639 542 608 b 476 478 542 526 514 493 l 368 543 l 258 461 l 258 56 l 400 56 l 400 0 l 36 0 l 36 56 l 136 56 l 136 481 m 267 683 l 369 1049 l 508 1049 "},"ř":{"ha":556,"x_min":0,"x_max":0,"o":"m 14 558 l 258 653 l 258 531 l 288 531 b 463 639 351 589 403 639 b 542 564 507 639 542 608 b 476 478 542 526 514 493 l 368 543 l 258 461 l 258 56 l 400 56 l 400 0 l 36 0 l 36 56 l 136 56 l 136 481 m 478 1088 l 339 722 l 244 722 l 106 1088 l 292 825 "},"ŗ":{"ha":556,"x_min":0,"x_max":0,"o":"m 14 558 l 258 653 l 258 531 l 288 531 b 463 639 351 589 403 639 b 542 564 507 639 542 608 b 476 478 542 526 514 493 l 368 543 l 258 461 l 258 56 l 400 56 l 400 0 l 36 0 l 36 56 l 136 56 l 136 481 m 115 -164 b 200 -90 115 -126 147 -90 b 299 -193 263 -90 299 -139 b 81 -372 299 -290 193 -372 b 221 -219 160 -333 214 -271 l 143 -219 b 115 -164 125 -208 115 -187 "},"ś":{"ha":540,"x_min":0,"x_max":0,"o":"m 54 229 b 264 50 108 103 189 50 b 371 149 322 50 371 85 b 68 456 371 299 68 251 b 264 639 68 567 164 639 b 389 590 313 639 361 617 l 458 639 l 458 407 b 261 578 400 506 333 578 b 172 493 211 578 172 547 b 481 185 172 353 481 392 b 249 -14 481 72 376 -14 b 54 57 168 -14 92 18 m 236 683 l 339 1049 l 478 1049 "},"š":{"ha":540,"x_min":0,"x_max":0,"o":"m 54 229 b 264 50 108 103 189 50 b 371 149 322 50 371 85 b 68 456 371 299 68 251 b 264 639 68 567 164 639 b 389 590 313 639 361 617 l 458 639 l 458 407 b 261 578 400 506 333 578 b 172 493 211 578 172 547 b 481 185 172 353 481 392 b 249 -14 481 72 376 -14 b 54 57 168 -14 92 18 m 454 1088 l 315 722 l 221 722 l 82 1088 l 268 825 "},"ş":{"ha":540,"x_min":0,"x_max":0,"o":"m 54 229 b 264 50 108 103 189 50 b 371 149 322 50 371 85 b 68 456 371 299 68 251 b 264 639 68 567 164 639 b 389 590 313 639 361 617 l 458 639 l 458 407 b 261 578 400 506 333 578 b 172 493 211 578 172 547 b 481 185 172 353 481 392 b 249 -14 481 72 376 -14 l 246 -14 l 240 -79 b 367 -210 304 -107 367 -139 b 161 -371 367 -292 247 -371 b 82 -315 113 -371 82 -347 b 146 -257 82 -281 111 -257 l 203 -337 b 289 -247 240 -331 289 -292 b 149 -144 289 -196 225 -164 l 228 -12 b 54 57 154 -8 89 21 "},"ŝ":{"ha":540,"x_min":0,"x_max":0,"o":"m 54 229 b 264 50 108 103 189 50 b 371 149 322 50 371 85 b 68 456 371 299 68 251 b 264 639 68 567 164 639 b 389 590 313 639 361 617 l 458 639 l 458 407 b 261 578 400 506 333 578 b 172 493 211 578 172 547 b 481 185 172 353 481 392 b 249 -14 481 72 376 -14 b 54 57 168 -14 92 18 m 82 683 l 221 1049 l 315 1049 l 454 683 l 268 946 "},"ș":{"ha":540,"x_min":0,"x_max":0,"o":"m 54 229 b 264 50 108 103 189 50 b 371 149 322 50 371 85 b 68 456 371 299 68 251 b 264 639 68 567 164 639 b 389 590 313 639 361 617 l 458 639 l 458 407 b 261 578 400 506 333 578 b 172 493 211 578 172 547 b 481 185 172 353 481 392 b 249 -14 481 72 376 -14 b 54 57 168 -14 92 18 m 165 -164 b 250 -90 165 -126 197 -90 b 349 -193 313 -90 349 -139 b 131 -372 349 -290 243 -372 b 271 -219 210 -333 264 -271 l 193 -219 b 165 -164 175 -208 165 -187 "},"ŧ":{"ha":529,"x_min":0,"x_max":0,"o":"m 257 339 l 257 210 b 374 79 257 117 310 79 b 515 140 426 79 471 97 b 310 -14 482 39 406 -14 b 140 157 218 -14 140 44 l 143 339 l 14 339 l 33 389 l 144 389 l 146 518 l 26 564 l 257 758 l 257 607 l 497 607 l 456 538 l 257 538 l 257 389 l 458 389 l 439 339 "},"ť":{"ha":513,"x_min":0,"x_max":0,"o":"m 240 758 l 240 607 l 481 607 l 439 538 l 240 538 l 240 210 b 357 79 240 117 293 79 b 499 140 410 79 454 97 b 293 -14 465 39 389 -14 b 124 157 201 -14 124 44 l 129 518 l 10 564 m 317 682 l 378 1047 l 503 1047 "},"ţ":{"ha":513,"x_min":0,"x_max":0,"o":"m 183 -371 b 104 -315 135 -371 104 -347 b 168 -257 104 -281 133 -257 l 225 -337 b 311 -247 263 -331 311 -292 b 171 -144 311 -196 247 -164 l 251 -10 b 124 157 179 6 124 63 l 129 518 l 10 564 l 240 758 l 240 607 l 481 607 l 439 538 l 240 538 l 240 210 b 357 79 240 117 293 79 b 499 140 410 79 454 97 b 293 -14 465 39 389 -14 b 268 -12 285 -14 276 -14 l 263 -79 b 389 -210 326 -107 389 -139 b 183 -371 389 -292 269 -371 "},"ț":{"ha":513,"x_min":0,"x_max":0,"o":"m 240 758 l 240 607 l 481 607 l 439 538 l 240 538 l 240 210 b 357 79 240 117 293 79 b 499 140 410 79 454 97 b 293 -14 465 39 389 -14 b 124 157 201 -14 124 44 l 129 518 l 10 564 m 174 -164 b 258 -90 174 -126 206 -90 b 357 -193 321 -90 357 -139 b 139 -372 357 -290 251 -372 b 279 -219 218 -333 272 -271 l 201 -219 b 174 -164 183 -208 174 -187 "},"þ":{"ha":782,"x_min":0,"x_max":0,"o":"m -8 989 l 250 1083 l 250 564 l 276 564 b 464 639 326 603 392 639 b 736 333 626 639 736 513 b 397 -14 736 124 561 -14 b 250 13 346 -14 297 -7 l 250 -333 l 392 -333 l 392 -389 l 28 -389 l 28 -333 l 128 -333 l 128 925 m 250 117 b 393 44 272 72 326 44 b 604 299 504 44 604 119 b 372 557 604 461 511 557 b 250 500 317 557 267 529 l 250 117 "},"ú":{"ha":771,"x_min":0,"x_max":0,"o":"m 518 60 l 486 60 b 308 -14 436 21 376 -14 b 125 190 190 -14 125 69 l 125 563 l 17 563 l 17 618 l 247 633 l 247 225 b 396 68 247 122 310 68 b 518 125 451 68 501 96 l 518 563 l 410 563 l 410 618 l 640 633 l 640 118 l 763 54 l 518 -26 m 328 683 l 431 1049 l 569 1049 "},"ŭ":{"ha":771,"x_min":0,"x_max":0,"o":"m 518 60 l 486 60 b 308 -14 436 21 376 -14 b 125 190 190 -14 125 69 l 125 563 l 17 563 l 17 618 l 247 633 l 247 225 b 396 68 247 122 310 68 b 518 125 451 68 501 96 l 518 563 l 410 563 l 410 618 l 640 633 l 640 118 l 763 54 l 518 -26 m 367 803 b 535 1067 449 803 497 904 b 367 711 563 883 492 711 b 199 1067 242 711 171 883 b 367 803 236 904 285 803 "},"û":{"ha":771,"x_min":0,"x_max":0,"o":"m 518 60 l 486 60 b 308 -14 436 21 376 -14 b 125 190 190 -14 125 69 l 125 563 l 17 563 l 17 618 l 247 633 l 247 225 b 396 68 247 122 310 68 b 518 125 451 68 501 96 l 518 563 l 410 563 l 410 618 l 640 633 l 640 118 l 763 54 l 518 -26 m 181 683 l 319 1049 l 414 1049 l 553 683 l 367 946 "},"ü":{"ha":771,"x_min":0,"x_max":0,"o":"m 518 60 l 486 60 b 308 -14 436 21 376 -14 b 125 190 190 -14 125 69 l 125 563 l 17 563 l 17 618 l 247 633 l 247 225 b 396 68 247 122 310 68 b 518 125 451 68 501 96 l 518 563 l 410 563 l 410 618 l 640 633 l 640 118 l 763 54 l 518 -26 m 508 804 b 431 881 464 804 431 838 b 508 957 431 924 464 957 b 588 881 553 957 588 924 b 508 804 588 838 553 804 m 251 804 b 174 881 207 804 174 838 b 251 957 174 924 207 957 b 331 881 296 957 331 924 b 251 804 331 838 296 804 "},"ù":{"ha":771,"x_min":0,"x_max":0,"o":"m 518 60 l 486 60 b 308 -14 436 21 376 -14 b 125 190 190 -14 125 69 l 125 563 l 17 563 l 17 618 l 247 633 l 247 225 b 396 68 247 122 310 68 b 518 125 451 68 501 96 l 518 563 l 410 563 l 410 618 l 640 633 l 640 118 l 763 54 l 518 -26 m 349 1049 l 451 683 l 210 1049 "},"ű":{"ha":771,"x_min":0,"x_max":0,"o":"m 518 60 l 486 60 b 308 -14 436 21 376 -14 b 125 190 190 -14 125 69 l 125 563 l 17 563 l 17 618 l 247 633 l 247 225 b 396 68 247 122 310 68 b 518 125 451 68 501 96 l 518 563 l 410 563 l 410 618 l 640 633 l 640 118 l 763 54 l 518 -26 m 250 683 l 353 1049 l 478 1049 m 444 683 l 547 1049 l 672 1049 "},"ū":{"ha":771,"x_min":0,"x_max":0,"o":"m 518 60 l 486 60 b 308 -14 436 21 376 -14 b 125 190 190 -14 125 69 l 125 563 l 17 563 l 17 618 l 247 633 l 247 225 b 396 68 247 122 310 68 b 518 125 451 68 501 96 l 518 563 l 410 563 l 410 618 l 640 633 l 640 118 l 763 54 l 518 -26 m 597 886 l 538 811 l 192 811 l 251 886 "},"ų":{"ha":771,"x_min":0,"x_max":0,"o":"m 567 -297 b 433 -371 519 -342 483 -371 b 325 -262 374 -371 325 -333 b 518 -10 325 -179 407 -79 l 518 60 l 486 60 b 308 -14 436 21 376 -14 b 125 190 190 -14 125 69 l 125 563 l 17 563 l 17 618 l 247 633 l 247 225 b 396 68 247 122 310 68 b 518 125 451 68 501 96 l 518 563 l 410 563 l 410 618 l 640 633 l 640 118 l 763 54 l 624 8 b 410 -215 476 -40 410 -139 b 504 -297 410 -272 439 -297 l 567 -297 "},"ů":{"ha":771,"x_min":0,"x_max":0,"o":"m 518 60 l 486 60 b 308 -14 436 21 376 -14 b 125 190 190 -14 125 69 l 125 563 l 17 563 l 17 618 l 247 633 l 247 225 b 396 68 247 122 310 68 b 518 125 451 68 501 96 l 518 563 l 410 563 l 410 618 l 640 633 l 640 118 l 763 54 l 518 -26 m 381 1015 b 519 876 457 1015 519 953 b 381 739 519 801 457 739 b 242 876 304 739 242 801 b 381 1015 242 953 304 1015 m 381 963 b 294 876 332 963 294 925 b 381 792 294 829 332 792 b 467 876 429 792 467 829 b 381 963 467 925 429 963 "},"ũ":{"ha":771,"x_min":0,"x_max":0,"o":"m 518 60 l 486 60 b 308 -14 436 21 376 -14 b 125 190 190 -14 125 69 l 125 563 l 17 563 l 17 618 l 247 633 l 247 225 b 396 68 247 122 310 68 b 518 125 451 68 501 96 l 518 563 l 410 563 l 410 618 l 640 633 l 640 118 l 763 54 l 518 -26 m 326 858 b 153 732 282 858 218 801 l 257 960 l 472 894 b 646 1021 517 894 581 951 l 542 793 "},"ẃ":{"ha":988,"x_min":0,"x_max":0,"o":"m 732 569 l 732 625 l 978 625 l 978 569 l 914 569 l 658 -42 l 506 365 l 325 -42 l 74 569 l 10 569 l 10 625 l 289 625 l 289 569 l 204 569 l 358 161 l 479 433 l 428 569 l 364 569 l 364 625 l 657 625 l 657 569 l 546 569 l 688 164 l 847 569 m 465 683 l 568 1049 l 707 1049 "},"ŵ":{"ha":988,"x_min":0,"x_max":0,"o":"m 732 569 l 732 625 l 978 625 l 978 569 l 914 569 l 658 -42 l 506 365 l 325 -42 l 74 569 l 10 569 l 10 625 l 289 625 l 289 569 l 204 569 l 358 161 l 479 433 l 428 569 l 364 569 l 364 625 l 657 625 l 657 569 l 546 569 l 688 164 l 847 569 m 315 683 l 454 1049 l 549 1049 l 688 683 l 501 946 "},"ẁ":{"ha":988,"x_min":0,"x_max":0,"o":"m 732 569 l 732 625 l 978 625 l 978 569 l 914 569 l 658 -42 l 506 365 l 325 -42 l 74 569 l 10 569 l 10 625 l 289 625 l 289 569 l 204 569 l 358 161 l 479 433 l 428 569 l 364 569 l 364 625 l 657 625 l 657 569 l 546 569 l 688 164 l 847 569 m 458 1049 l 561 683 l 319 1049 "},"ẅ":{"ha":988,"x_min":0,"x_max":0,"o":"m 732 569 l 732 625 l 978 625 l 978 569 l 914 569 l 658 -42 l 506 365 l 325 -42 l 74 569 l 10 569 l 10 625 l 289 625 l 289 569 l 204 569 l 358 161 l 479 433 l 428 569 l 364 569 l 364 625 l 657 625 l 657 569 l 546 569 l 688 164 l 847 569 m 622 804 b 544 881 578 804 544 838 b 622 957 544 924 578 957 b 701 881 667 957 701 924 b 622 804 701 838 667 804 m 365 804 b 288 881 321 804 288 838 b 365 957 288 924 321 957 b 444 881 410 957 444 924 b 365 804 444 838 410 804 "},"ý":{"ha":689,"x_min":0,"x_max":0,"o":"m 433 569 l 433 625 l 679 625 l 679 569 l 615 569 l 267 -283 b 131 -403 240 -347 206 -403 b 40 -318 74 -403 40 -361 b 71 -251 40 -294 50 -271 l 197 -297 l 301 -40 l 74 569 l 10 569 l 10 625 l 319 625 l 319 569 l 208 569 l 368 103 l 549 569 m 339 683 l 442 1049 l 581 1049 "},"ŷ":{"ha":689,"x_min":0,"x_max":0,"o":"m 433 569 l 433 625 l 679 625 l 679 569 l 615 569 l 267 -283 b 131 -403 240 -347 206 -403 b 40 -318 74 -403 40 -361 b 71 -251 40 -294 50 -271 l 197 -297 l 301 -40 l 74 569 l 10 569 l 10 625 l 319 625 l 319 569 l 208 569 l 368 103 l 549 569 m 182 683 l 321 1049 l 415 1049 l 554 683 l 368 946 "},"ÿ":{"ha":689,"x_min":0,"x_max":0,"o":"m 433 569 l 433 625 l 679 625 l 679 569 l 615 569 l 267 -283 b 131 -403 240 -347 206 -403 b 40 -318 74 -403 40 -361 b 71 -251 40 -294 50 -271 l 197 -297 l 301 -40 l 74 569 l 10 569 l 10 625 l 319 625 l 319 569 l 208 569 l 368 103 l 549 569 m 500 804 b 422 881 456 804 422 838 b 500 957 422 924 456 957 b 579 881 544 957 579 924 b 500 804 579 838 544 804 m 243 804 b 165 881 199 804 165 838 b 243 957 165 924 199 957 b 322 881 288 957 322 924 b 243 804 322 838 288 804 "},"ỳ":{"ha":689,"x_min":0,"x_max":0,"o":"m 433 569 l 433 625 l 679 625 l 679 569 l 615 569 l 267 -283 b 131 -403 240 -347 206 -403 b 40 -318 74 -403 40 -361 b 71 -251 40 -294 50 -271 l 197 -297 l 301 -40 l 74 569 l 10 569 l 10 625 l 319 625 l 319 569 l 208 569 l 368 103 l 549 569 m 318 1049 l 421 683 l 179 1049 "},"ź":{"ha":635,"x_min":0,"x_max":0,"o":"m 453 51 l 607 264 l 575 0 l 21 0 l 424 574 l 217 574 l 44 404 l 100 681 l 153 625 l 589 625 l 194 51 m 276 683 l 379 1049 l 518 1049 "},"ž":{"ha":635,"x_min":0,"x_max":0,"o":"m 453 51 l 607 264 l 575 0 l 21 0 l 424 574 l 217 574 l 44 404 l 100 681 l 153 625 l 589 625 l 194 51 m 515 1088 l 376 722 l 282 722 l 143 1088 l 329 825 "},"ż":{"ha":635,"x_min":0,"x_max":0,"o":"m 453 51 l 607 264 l 575 0 l 21 0 l 424 574 l 217 574 l 44 404 l 100 681 l 153 625 l 589 625 l 194 51 m 329 813 b 244 896 282 813 244 850 b 329 979 244 942 282 979 b 414 896 376 979 414 942 b 329 813 414 850 376 813 "},"º":{"ha":579,"x_min":0,"x_max":0,"o":"m 50 732 b 290 969 50 871 164 969 b 529 732 415 969 529 871 b 290 496 529 593 415 496 b 50 732 164 496 50 593 m 158 732 b 290 535 158 618 221 535 b 421 732 360 535 421 618 b 290 931 421 847 360 931 b 158 732 221 931 158 846 m 478 399 l 446 339 l 101 339 l 133 399 "},"ª":{"ha":497,"x_min":0,"x_max":0,"o":"m 290 821 b 160 903 290 876 263 929 l 160 811 l 49 811 b 278 968 83 900 192 968 b 385 850 338 968 385 926 l 385 624 b 431 568 385 586 403 568 b 481 592 449 568 467 576 b 379 496 481 535 433 496 b 292 560 332 496 304 524 l 275 560 b 150 497 249 533 206 497 b 53 592 100 497 53 533 b 178 719 53 657 114 694 l 290 764 l 290 821 m 238 708 b 149 618 181 683 149 663 b 211 564 149 582 175 564 b 290 597 242 564 268 576 l 290 731 m 440 399 l 408 339 l 64 339 l 96 399 "},"ﬀ":{"ha":861,"x_min":0,"x_max":0,"o":"m 136 501 l 15 568 l 136 639 b 464 1056 167 875 297 1056 b 569 976 532 1056 569 1022 b 493 904 569 936 538 904 l 399 992 b 258 607 299 949 258 808 l 557 607 l 557 639 b 942 1083 588 896 744 1083 b 1054 999 1008 1083 1054 1047 b 975 925 1054 957 1021 925 l 864 1018 b 679 607 739 979 679 829 l 879 607 l 838 538 l 679 538 l 679 56 l 821 56 l 821 0 l 457 0 l 457 56 l 557 56 l 557 538 l 258 538 l 258 56 l 358 56 l 358 0 l 36 0 l 36 56 l 136 56 "},"ﬁ":{"ha":810,"x_min":0,"x_max":0,"o":"m 136 501 l 15 568 l 136 639 b 547 1083 167 896 338 1083 b 668 993 621 1083 668 1047 b 576 908 668 949 625 908 l 460 1022 b 258 607 333 978 258 818 l 561 607 l 679 653 l 679 56 l 779 56 l 779 0 l 457 0 l 457 56 l 557 56 l 557 538 l 258 538 l 258 56 l 358 56 l 358 0 l 36 0 l 36 56 l 136 56 "},"ﬃ":{"ha":1231,"x_min":0,"x_max":0,"o":"m 557 538 l 258 538 l 258 56 l 358 56 l 358 0 l 36 0 l 36 56 l 136 56 l 136 501 l 15 568 l 136 639 b 464 1056 167 875 297 1056 b 569 976 532 1056 569 1022 b 493 904 569 936 538 904 l 399 992 b 258 607 299 949 258 808 l 557 607 l 557 639 b 968 1083 588 896 758 1083 b 1089 993 1042 1083 1089 1047 b 997 908 1089 949 1046 908 l 881 1022 b 679 607 754 978 679 818 l 982 607 l 1100 653 l 1100 56 l 1200 56 l 1200 0 l 878 0 l 878 56 l 978 56 l 978 538 l 679 538 l 679 56 l 779 56 l 779 0 l 457 0 l 457 56 l 557 56 "},"ﬂ":{"ha":811,"x_min":0,"x_max":0,"o":"m 417 538 l 258 538 l 258 56 l 358 56 l 358 0 l 36 0 l 36 56 l 136 56 l 136 501 l 15 568 l 136 639 b 535 1083 167 896 324 1083 b 679 1057 596 1083 628 1075 l 679 56 l 779 56 l 779 0 l 457 0 l 457 56 l 557 56 l 557 990 b 482 1017 539 1007 514 1017 b 258 607 333 1017 258 843 l 458 607 "},"ﬄ":{"ha":1232,"x_min":0,"x_max":0,"o":"m 978 990 b 903 1017 960 1007 935 1017 b 679 607 754 1017 679 843 l 879 607 l 838 538 l 679 538 l 679 56 l 779 56 l 779 0 l 457 0 l 457 56 l 557 56 l 557 538 l 258 538 l 258 56 l 358 56 l 358 0 l 36 0 l 36 56 l 136 56 l 136 501 l 15 568 l 136 639 b 464 1056 167 875 297 1056 b 569 976 532 1056 569 1022 b 493 904 569 936 538 904 l 399 992 b 258 607 299 949 258 808 l 557 607 l 557 639 b 956 1083 588 896 744 1083 b 1100 1057 1017 1083 1049 1075 l 1100 56 l 1200 56 l 1200 0 l 878 0 l 878 56 l 978 56 "},"&":{"ha":1163,"x_min":0,"x_max":0,"o":"m 883 0 l 708 172 b 372 -14 607 60 499 -14 b 78 258 219 -14 78 90 b 296 551 78 407 193 493 l 296 582 b 215 757 249 633 215 686 b 435 972 215 868 306 972 b 639 793 542 972 639 896 b 475 608 639 706 571 642 l 475 578 l 743 314 b 918 588 806 397 863 494 l 918 615 l 781 615 l 781 678 l 1139 678 l 1139 615 l 1010 615 b 788 271 936 492 863 372 l 1063 0 m 318 807 b 433 619 318 738 372 678 b 540 793 507 653 540 725 b 428 919 540 856 499 919 b 318 807 369 919 318 881 m 194 307 b 419 100 194 174 301 100 b 663 219 511 100 590 147 l 389 489 b 340 536 372 506 357 521 b 194 307 264 490 194 421 "},"`":{"ha":694,"x_min":0,"x_max":0,"o":"m 365 1049 l 468 683 l 226 1049 "},"´":{"ha":694,"x_min":0,"x_max":0,"o":"m 226 683 l 329 1049 l 468 1049 "},"ˆ":{"ha":694,"x_min":0,"x_max":0,"o":"m 161 683 l 300 1049 l 394 1049 l 533 683 l 347 946 "},"˜":{"ha":694,"x_min":0,"x_max":0,"o":"m 274 858 b 100 732 229 858 165 801 l 204 960 l 419 894 b 593 1021 464 894 528 951 l 489 793 "},"¯":{"ha":694,"x_min":0,"x_max":0,"o":"m 550 886 l 490 811 l 144 811 l 204 886 "},"˘":{"ha":694,"x_min":0,"x_max":0,"o":"m 347 803 b 515 1067 429 803 478 904 b 347 711 543 883 472 711 b 179 1067 222 711 151 883 b 347 803 217 904 265 803 "},"˙":{"ha":694,"x_min":0,"x_max":0,"o":"m 347 813 b 263 896 300 813 263 850 b 347 979 263 942 300 979 b 432 896 394 979 432 942 b 347 813 432 850 394 813 "},"¨":{"ha":694,"x_min":0,"x_max":0,"o":"m 475 804 b 397 881 431 804 397 838 b 475 957 397 924 431 957 b 554 881 519 957 554 924 b 475 804 554 838 519 804 m 218 804 b 140 881 174 804 140 838 b 218 957 140 924 174 957 b 297 881 263 957 297 924 b 218 804 297 838 263 804 "},"˚":{"ha":694,"x_min":0,"x_max":0,"o":"m 347 1015 b 486 876 424 1015 486 953 b 347 739 486 801 424 739 b 208 876 271 739 208 801 b 347 1015 208 953 271 1015 m 347 963 b 261 876 299 963 261 925 b 347 792 261 829 299 792 b 433 876 396 792 433 829 b 347 963 433 925 396 963 "},"˝":{"ha":694,"x_min":0,"x_max":0,"o":"m 136 683 l 239 1049 l 364 1049 m 331 683 l 433 1049 l 558 1049 "},"ˇ":{"ha":694,"x_min":0,"x_max":0,"o":"m 533 1088 l 394 722 l 300 722 l 161 1088 l 347 825 "},"":{"ha":694,"x_min":0,"x_max":0,"o":"m 269 -164 b 354 -90 269 -126 301 -90 b 453 -193 417 -90 453 -139 b 235 -372 453 -290 347 -372 b 375 -219 314 -333 368 -271 l 297 -219 b 269 -164 279 -208 269 -187 "},"¸":{"ha":694,"x_min":0,"x_max":0,"o":"m 243 -371 b 164 -315 194 -371 164 -347 b 228 -257 164 -281 193 -257 l 285 -337 b 371 -247 322 -331 371 -292 b 231 -144 371 -196 307 -164 l 332 25 l 322 -79 b 449 -210 386 -107 449 -139 b 243 -371 449 -292 329 -371 "},"˛":{"ha":694,"x_min":0,"x_max":0,"o":"m 453 21 b 286 -218 369 -39 286 -142 b 381 -297 286 -272 315 -297 l 443 -297 b 310 -371 396 -342 360 -371 b 201 -262 250 -371 201 -333 b 443 38 201 -167 324 -35 "},".":{"ha":374,"x_min":0,"x_max":0,"o":"m 281 79 b 186 -12 281 29 242 -12 b 93 79 133 -12 93 29 b 186 175 93 132 133 175 b 281 79 242 175 281 132 "},",":{"ha":374,"x_min":0,"x_max":0,"o":"m 76 90 b 172 178 76 138 117 178 b 311 -3 261 178 311 97 b 39 -286 311 -157 175 -286 b 224 -36 135 -228 224 -139 b 207 22 224 -11 219 7 l 111 22 b 76 90 89 35 76 63 "},":":{"ha":374,"x_min":0,"x_max":0,"o":"m 281 79 b 186 -12 281 29 242 -12 b 93 79 133 -12 93 29 b 186 175 93 132 133 175 b 281 79 242 175 281 132 m 281 493 b 186 401 281 443 242 401 b 93 493 133 401 93 443 b 186 589 93 546 133 589 b 281 493 242 589 281 546 "},";":{"ha":374,"x_min":0,"x_max":0,"o":"m 76 90 b 172 178 76 138 117 178 b 311 -3 261 178 311 97 b 39 -286 311 -157 175 -286 b 224 -36 135 -228 224 -139 b 207 22 224 -11 219 7 l 111 22 b 76 90 89 35 76 63 m 281 493 b 186 401 281 443 242 401 b 93 493 133 401 93 443 b 186 589 93 546 133 589 b 281 493 242 589 281 546 "},"…":{"ha":1013,"x_min":0,"x_max":0,"o":"m 919 79 b 825 -12 919 29 881 -12 b 732 79 772 -12 732 29 b 825 175 732 132 772 175 b 919 79 881 175 919 132 m 600 79 b 506 -12 600 29 561 -12 b 413 79 453 -12 413 29 b 506 175 413 132 453 175 b 600 79 561 175 600 132 m 281 79 b 186 -12 281 29 242 -12 b 93 79 133 -12 93 29 b 186 175 93 132 133 175 b 281 79 242 175 281 132 "},"!":{"ha":431,"x_min":0,"x_max":0,"o":"m 215 258 l 128 874 b 215 972 128 933 167 972 b 303 874 264 972 303 933 m 310 79 b 215 -12 310 29 271 -12 b 122 79 163 -12 122 29 b 215 175 122 132 163 175 b 310 79 271 175 310 132 "},"¡":{"ha":425,"x_min":0,"x_max":0,"o":"m 303 86 b 215 -12 303 26 264 -12 b 128 86 167 -12 128 26 l 215 701 l 303 86 m 310 881 b 215 785 310 828 271 785 b 122 881 163 785 122 828 b 215 972 122 931 163 972 b 310 881 271 972 310 931 "},"?":{"ha":647,"x_min":0,"x_max":0,"o":"m 165 775 b 74 864 115 782 74 818 b 254 972 74 925 143 972 b 578 690 442 972 578 856 b 238 367 578 538 443 410 l 151 468 b 460 722 333 506 460 594 b 246 921 460 833 368 921 m 396 79 b 301 -12 396 29 357 -12 b 208 79 249 -12 208 29 b 301 175 208 132 249 175 b 396 79 357 175 396 132 "},"¿":{"ha":647,"x_min":0,"x_max":0,"o":"m 482 186 b 574 97 532 179 574 143 b 393 -11 574 36 504 -11 b 69 271 206 -11 69 106 b 410 594 69 424 204 551 l 496 493 b 188 239 314 456 188 367 b 401 40 188 128 279 40 m 251 882 b 346 974 251 932 290 974 b 439 882 399 974 439 932 b 346 786 439 829 399 786 b 251 882 290 786 251 829 "},"‘":{"ha":361,"x_min":0,"x_max":0,"o":"m 276 714 b 194 642 276 675 243 642 b 78 786 124 642 78 703 b 307 1025 78 915 194 1025 b 157 818 222 972 157 904 b 171 771 157 797 160 783 l 247 771 b 276 714 265 760 276 738 "},"’":{"ha":361,"x_min":0,"x_max":0,"o":"m 85 929 b 167 1001 85 968 118 1001 b 283 857 238 1001 283 940 b 54 618 283 728 167 618 b 204 825 139 671 204 739 b 190 872 204 846 201 860 l 114 872 b 85 929 96 883 85 906 "},"“":{"ha":622,"x_min":0,"x_max":0,"o":"m 538 714 b 456 642 538 675 504 642 b 339 786 385 642 339 703 b 568 1025 339 915 456 1025 b 418 818 483 972 418 904 b 432 771 418 797 421 783 l 508 771 b 538 714 526 760 538 738 m 276 714 b 194 642 276 675 243 642 b 78 786 124 642 78 703 b 307 1025 78 915 194 1025 b 157 818 222 972 157 904 b 171 771 157 797 160 783 l 247 771 b 276 714 265 760 276 738 "},"”":{"ha":622,"x_min":0,"x_max":0,"o":"m 346 929 b 428 1001 346 968 379 1001 b 544 857 499 1001 544 940 b 315 618 544 728 428 618 b 465 825 400 671 465 739 b 451 872 465 846 463 860 l 375 872 b 346 929 357 883 346 906 m 85 929 b 167 1001 85 968 118 1001 b 283 857 238 1001 283 940 b 54 618 283 728 167 618 b 204 825 139 671 204 739 b 190 872 204 846 201 860 l 114 872 b 85 929 96 883 85 906 "},"‚":{"ha":361,"x_min":0,"x_max":0,"o":"m 85 110 b 167 182 85 149 118 182 b 283 38 238 182 283 121 b 54 -201 283 -92 167 -201 b 204 6 139 -149 204 -81 b 190 53 204 26 201 40 l 114 53 b 85 110 96 64 85 86 "},"„":{"ha":622,"x_min":0,"x_max":0,"o":"m 346 110 b 428 182 346 149 379 182 b 544 38 499 182 544 121 b 315 -201 544 -92 428 -201 b 465 6 400 -149 465 -81 b 451 53 465 26 463 40 l 375 53 b 346 110 357 64 346 86 m 85 110 b 167 182 85 149 118 182 b 283 38 238 182 283 121 b 54 -201 283 -92 167 -201 b 204 6 139 -149 204 -81 b 190 53 204 26 201 40 l 114 53 b 85 110 96 64 85 86 "},"‹":{"ha":431,"x_min":0,"x_max":0,"o":"m 361 592 l 215 313 l 361 31 l 69 313 "},"›":{"ha":431,"x_min":0,"x_max":0,"o":"m 69 31 l 215 313 l 69 592 l 361 313 "},"«":{"ha":681,"x_min":0,"x_max":0,"o":"m 611 592 l 465 313 l 611 31 l 319 313 m 361 592 l 215 313 l 361 31 l 69 313 "},"»":{"ha":681,"x_min":0,"x_max":0,"o":"m 69 31 l 215 313 l 69 592 l 361 313 m 319 31 l 465 313 l 319 592 l 611 313 "},"/":{"ha":607,"x_min":0,"x_max":0,"o":"m 551 1069 l 125 -201 l 56 -201 l 482 1069 "},"\\":{"ha":607,"x_min":0,"x_max":0,"o":"m 551 -201 l 482 -201 l 56 1069 l 125 1069 "},"|":{"ha":456,"x_min":0,"x_max":0,"o":"m 261 -201 l 194 -201 l 194 1069 l 261 1069 "},"·":{"ha":390,"x_min":0,"x_max":0,"o":"m 289 347 b 194 256 289 297 250 256 b 101 347 142 256 101 297 b 194 443 101 400 142 443 b 289 347 250 443 289 400 "},"•":{"ha":581,"x_min":0,"x_max":0,"o":"m 290 544 b 483 351 397 544 483 458 b 290 158 483 246 397 158 b 97 351 185 158 97 246 b 290 544 97 458 185 544 "},"-":{"ha":560,"x_min":0,"x_max":0,"o":"m 435 311 l 97 311 l 125 392 l 463 392 "},"–":{"ha":903,"x_min":0,"x_max":0,"o":"m 806 379 l 774 311 l 97 311 l 129 379 "},"—":{"ha":1444,"x_min":0,"x_max":0,"o":"m 1347 379 l 1315 311 l 97 311 l 129 379 "},"(":{"ha":563,"x_min":0,"x_max":0,"o":"m 139 396 b 479 1038 139 656 278 871 b 267 396 356 847 267 639 b 479 -246 267 153 356 -56 b 139 396 278 -79 139 136 "},")":{"ha":563,"x_min":0,"x_max":0,"o":"m 424 396 b 83 -246 424 136 285 -79 b 296 396 207 -56 296 153 b 83 1038 296 639 207 847 b 424 396 285 871 424 656 "},"[":{"ha":604,"x_min":0,"x_max":0,"o":"m 181 1028 l 507 1028 l 507 965 l 268 965 l 268 -167 l 507 -167 l 507 -229 l 181 -229 "},"]":{"ha":604,"x_min":0,"x_max":0,"o":"m 97 -229 l 97 -167 l 336 -167 l 336 965 l 97 965 l 97 1028 l 424 1028 l 424 -229 "},"{":{"ha":613,"x_min":0,"x_max":0,"o":"m 49 397 b 293 547 150 417 293 456 b 197 851 293 646 197 763 b 400 1028 197 943 268 1028 b 543 994 456 1028 515 1008 b 311 844 400 988 311 944 b 364 549 311 781 364 633 b 176 397 364 454 253 411 b 364 246 253 383 364 340 b 311 -50 364 161 311 14 b 543 -200 311 -150 400 -193 b 400 -233 515 -214 456 -233 b 197 -57 268 -233 197 -149 b 293 247 197 32 293 149 b 49 397 293 339 150 378 "},"}":{"ha":613,"x_min":0,"x_max":0,"o":"m 564 397 b 319 247 463 378 319 339 b 415 -57 319 149 415 32 b 213 -233 415 -149 344 -233 b 69 -200 157 -233 97 -214 b 301 -50 213 -193 301 -150 b 249 246 301 14 249 161 b 436 397 249 340 360 383 b 249 549 360 411 249 454 b 301 844 249 633 301 781 b 69 994 301 944 213 988 b 213 1028 97 1008 157 1028 b 415 851 344 1028 415 943 b 319 547 415 763 319 646 b 564 397 319 456 463 417 "},"*":{"ha":653,"x_min":0,"x_max":0,"o":"m 361 765 l 326 540 l 292 765 l 79 683 l 257 825 l 79 967 l 292 883 l 326 1110 l 361 883 l 574 967 l 396 825 l 574 683 "},"†":{"ha":669,"x_min":0,"x_max":0,"o":"m 544 838 l 364 838 l 364 456 l 306 456 l 306 838 l 125 838 l 125 896 l 306 896 l 306 1069 l 364 1069 l 364 896 l 544 896 "},"‡":{"ha":669,"x_min":0,"x_max":0,"o":"m 544 629 l 364 629 l 364 456 l 306 456 l 306 629 l 125 629 l 125 688 l 306 688 l 306 838 l 125 838 l 125 896 l 306 896 l 306 1069 l 364 1069 l 364 896 l 544 896 l 544 838 l 364 838 l 364 688 l 544 688 "},"§":{"ha":732,"x_min":0,"x_max":0,"o":"m 321 -231 b 474 -160 385 -231 436 -203 l 196 390 b 125 632 151 479 125 547 b 431 972 125 806 240 972 b 603 856 526 972 603 926 b 485 765 603 794 547 765 l 485 908 b 411 922 461 919 435 922 b 258 851 347 922 296 894 l 536 301 b 607 60 581 213 607 144 b 301 -281 607 -114 492 -281 b 129 -164 206 -281 129 -235 b 247 -74 129 -103 185 -74 l 247 -217 b 321 -231 271 -228 297 -231 m 508 -111 b 550 49 536 -64 550 -6 b 499 244 550 118 532 176 l 224 803 b 182 643 196 756 182 697 b 233 447 182 574 200 515 "},"¶":{"ha":872,"x_min":0,"x_max":0,"o":"m 804 958 l 804 897 l 617 897 l 617 -32 b 369 -286 617 -171 517 -286 b 150 -78 254 -286 150 -201 b 336 113 150 31 236 113 b 450 21 410 113 450 72 b 336 -60 450 -37 392 -60 l 336 56 b 210 -74 271 56 210 3 b 369 -229 210 -164 278 -229 b 553 -29 479 -229 553 -162 l 553 897 l 451 897 l 451 378 b 114 668 275 378 114 496 b 451 958 114 840 275 958 "},"^":{"ha":544,"x_min":0,"x_max":0,"o":"m 42 481 l 225 929 b 272 963 235 951 253 963 b 319 929 292 963 310 951 l 503 481 l 272 806 "},"~":{"ha":715,"x_min":0,"x_max":0,"o":"m 514 324 b 268 354 467 335 324 354 b 97 257 224 354 163 308 l 201 451 b 447 421 249 440 392 421 b 618 518 492 421 553 467 l 514 324 "},"_":{"ha":699,"x_min":0,"x_max":0,"o":"m 574 -185 l 97 -185 l 125 -104 l 601 -104 "},"'":{"ha":269,"x_min":0,"x_max":0,"o":"m 69 971 b 135 1042 69 1001 86 1042 b 200 971 183 1042 200 1001 l 135 549 "},"\"":{"ha":492,"x_min":0,"x_max":0,"o":"m 292 971 b 357 1042 292 1001 308 1042 b 422 971 406 1042 422 1001 l 357 549 m 69 971 b 135 1042 69 1001 86 1042 b 200 971 183 1042 200 1001 l 135 549 "},"@":{"ha":1304,"x_min":0,"x_max":0,"o":"m 853 49 b 1114 414 1010 53 1114 201 b 714 821 1114 606 990 821 b 190 267 389 821 190 557 b 724 -242 190 -76 465 -242 b 1135 -147 861 -242 1010 -212 b 676 -315 1024 -246 858 -315 b 83 246 401 -315 83 -140 b 714 878 83 569 342 878 b 1221 400 1033 878 1221 640 b 890 1 1221 160 1050 1 b 744 81 810 1 768 40 l 721 81 b 560 3 688 50 631 3 b 435 124 496 3 435 49 b 594 289 435 208 515 258 l 743 347 l 743 425 b 568 526 743 494 707 567 l 568 407 l 426 407 b 718 613 472 519 603 613 b 853 464 790 613 853 561 l 853 49 m 668 274 b 549 154 590 242 549 214 b 631 83 549 108 583 83 b 743 133 675 83 711 103 l 743 306 "},"©":{"ha":1140,"x_min":0,"x_max":0,"o":"m 83 479 b 571 972 83 749 303 972 b 1057 479 838 972 1057 749 b 571 -14 1057 210 838 -14 b 83 479 303 -14 83 210 m 139 479 b 571 39 139 238 333 39 b 1001 479 807 39 1001 238 b 571 918 1001 719 807 918 b 139 479 333 918 139 719 m 800 347 b 575 197 769 265 686 197 b 301 471 435 197 301 301 b 588 769 301 651 446 769 b 722 731 646 769 690 750 l 783 769 l 783 574 b 589 728 732 653 676 728 b 408 514 493 728 408 644 b 625 276 408 363 513 276 b 800 347 696 276 751 303 "},"®":{"ha":735,"x_min":0,"x_max":0,"o":"m 83 686 b 368 972 83 844 201 972 b 651 686 532 972 651 844 b 368 404 651 532 532 404 b 83 686 201 404 83 532 m 125 686 b 368 446 125 554 225 446 b 610 686 508 446 610 554 b 368 931 610 822 508 931 b 125 686 225 931 125 822 m 365 550 l 221 550 l 221 578 l 263 578 l 263 813 l 221 813 l 221 840 l 358 840 b 479 761 428 840 479 815 b 404 688 479 722 447 697 l 522 550 l 451 550 l 343 682 l 322 682 l 322 578 l 365 578 m 322 707 l 351 707 b 421 761 392 707 421 722 b 351 813 421 796 392 813 l 322 813 "},"™":{"ha":1261,"x_min":0,"x_max":0,"o":"m 488 958 l 521 976 l 521 815 l 446 917 l 353 917 l 353 568 l 439 568 l 439 526 l 183 526 l 183 568 l 268 568 l 268 917 l 176 917 l 100 815 l 100 976 l 133 958 m 1003 919 l 856 500 l 707 919 l 675 568 l 746 568 l 746 526 l 575 526 l 575 568 l 631 568 l 663 915 l 606 915 l 606 958 l 786 958 l 878 678 l 971 958 l 1146 958 l 1146 915 l 1089 915 l 1121 568 l 1176 568 l 1176 526 l 965 526 l 965 568 l 1036 568 "},"#":{"ha":917,"x_min":0,"x_max":0,"o":"m 214 289 l 69 289 l 69 343 l 233 343 l 329 615 l 153 615 l 153 669 l 349 669 l 450 958 l 508 958 l 407 669 l 644 669 l 746 958 l 804 958 l 703 669 l 847 669 l 847 615 l 683 615 l 588 343 l 764 343 l 764 289 l 568 289 l 467 0 l 408 0 l 510 289 l 272 289 l 171 0 l 113 0 m 529 343 l 625 615 l 388 615 l 292 343 "},"°":{"ha":449,"x_min":0,"x_max":0,"o":"m 225 578 b 28 775 117 578 28 667 b 225 972 28 883 117 972 b 421 775 333 972 421 883 b 225 578 421 667 333 578 m 225 647 b 351 775 296 647 351 706 b 225 903 351 844 296 903 b 97 775 154 903 97 846 b 225 647 97 704 154 647 "},"ƒ":{"ha":785,"x_min":0,"x_max":0,"o":"m 278 82 b -75 -403 176 -211 79 -403 b -144 -322 -125 -403 -144 -367 b -135 -258 -144 -301 -140 -279 l 64 -283 l 253 375 l 85 375 l 99 431 l 269 431 l 283 481 b 693 972 378 808 521 972 b 785 900 760 972 785 935 b 729 814 785 865 760 832 l 565 903 l 400 431 l 581 431 l 565 375 l 381 375 l 278 82 "},"€":{"ha":868,"x_min":0,"x_max":0,"o":"m 28 429 l 139 429 b 139 457 139 439 139 447 b 144 544 139 488 140 517 l 28 544 l 28 600 l 154 600 b 536 972 204 828 371 972 b 728 900 622 972 685 938 l 814 972 l 814 660 b 533 906 743 790 653 906 b 269 600 407 906 299 783 l 567 600 l 549 544 l 264 544 b 263 504 263 532 263 518 b 267 429 263 478 264 453 l 524 429 l 504 374 l 276 374 b 575 96 317 197 438 96 b 838 228 692 96 771 151 b 528 -14 800 96 692 -14 b 144 374 342 -14 175 133 l 28 374 "},"$":{"ha":771,"x_min":0,"x_max":0,"o":"m 451 1125 l 440 957 b 564 896 492 946 536 921 l 660 968 l 660 656 b 435 892 601 765 529 860 l 413 560 b 694 292 546 507 694 454 b 372 -7 694 122 553 3 l 361 -175 l 308 -175 l 319 -6 b 69 94 228 1 129 39 l 69 326 b 325 63 129 179 215 86 l 351 447 b 94 699 226 494 94 543 b 371 965 94 843 210 965 b 388 965 376 965 382 965 l 399 1125 m 365 903 b 203 744 271 903 203 838 b 361 581 203 660 274 617 l 383 901 b 365 903 378 903 371 903 m 574 238 b 403 426 574 342 496 389 l 378 57 l 381 57 b 574 238 485 57 574 121 "},"¢":{"ha":629,"x_min":0,"x_max":0,"o":"m 396 585 l 354 89 b 388 88 365 88 376 88 b 582 186 471 88 540 131 b 346 -14 567 76 472 -8 l 332 -175 l 279 -175 l 293 -11 b 42 289 149 8 42 128 b 347 635 42 469 178 611 l 363 818 l 415 818 l 400 639 b 571 531 508 638 571 592 b 475 449 571 485 526 449 m 151 329 b 303 100 151 208 211 129 l 343 583 b 151 329 232 560 151 457 "},"£":{"ha":843,"x_min":0,"x_max":0,"o":"m 136 0 b 54 108 89 0 44 38 l 208 150 l 285 454 l 138 454 l 151 510 l 299 510 l 328 628 b 671 972 381 840 492 972 b 797 886 747 972 797 935 b 733 792 797 843 768 810 l 569 918 l 411 510 l 592 510 l 576 454 l 390 454 l 274 151 l 718 93 l 731 108 l 629 214 b 713 274 642 251 678 274 b 794 178 756 274 794 236 b 600 -25 794 83 708 -11 l 256 106 b 136 0 225 40 186 0 "},"¥":{"ha":964,"x_min":0,"x_max":0,"o":"m 154 369 l 415 369 l 415 483 l 154 483 l 154 539 l 376 539 l 129 897 l 14 897 l 14 958 l 451 958 l 451 897 l 281 897 l 513 542 l 758 897 l 588 897 l 588 958 l 950 958 l 950 897 l 835 897 l 581 539 l 813 539 l 813 483 l 542 483 l 542 369 l 813 369 l 813 314 l 542 314 l 542 61 l 699 61 l 699 0 l 258 0 l 258 61 l 415 61 l 415 314 l 154 314 "},"฿":{"ha":904,"x_min":0,"x_max":0,"o":"m 431 958 b 463 958 442 958 451 958 l 463 1125 l 515 1125 l 515 954 b 796 728 686 936 796 863 b 544 506 796 615 676 524 b 853 268 676 497 853 422 b 515 1 853 121 717 15 l 515 -175 l 463 -175 l 463 0 l 49 0 l 49 61 l 192 61 l 192 897 l 49 897 l 49 958 m 319 897 l 319 521 l 418 521 b 463 524 433 521 449 522 l 463 896 b 417 897 447 897 432 897 m 661 714 b 515 888 661 811 604 865 l 515 535 b 661 714 600 561 661 622 m 458 61 l 463 61 l 463 463 b 447 463 453 463 457 463 l 319 463 l 319 61 m 714 269 b 515 458 714 388 622 443 l 515 65 b 714 269 633 81 714 147 "},"₫":{"ha":828,"x_min":0,"x_max":0,"o":"m 776 138 l 539 57 l 539 136 l 508 136 b 332 69 460 100 401 69 b 69 361 181 69 69 190 b 407 693 69 561 238 693 b 539 667 446 693 493 686 l 539 796 l 324 796 l 324 851 l 539 851 l 539 983 l 654 1025 l 654 851 l 778 851 l 778 796 l 654 796 l 654 201 m 539 567 b 397 636 521 606 465 636 b 190 394 289 636 190 565 b 419 147 190 239 288 147 b 539 201 474 147 522 174 m 92 -83 l 764 -83 l 764 -139 l 92 -139 "},"₣":{"ha":879,"x_min":0,"x_max":0,"o":"m 83 429 l 226 429 l 226 544 l 83 544 l 83 600 l 226 600 l 226 897 l 83 897 l 83 958 l 749 958 l 824 999 l 824 704 l 681 897 l 353 897 l 353 600 l 678 600 l 660 544 l 353 544 l 353 429 l 635 429 l 615 374 l 353 374 l 353 61 l 538 61 l 538 0 l 83 0 l 83 61 l 226 61 l 226 374 l 83 374 "},"₦":{"ha":1147,"x_min":0,"x_max":0,"o":"m 83 429 l 226 429 l 226 544 l 83 544 l 83 600 l 226 600 l 226 817 l 113 958 l 267 958 l 849 213 l 849 897 l 706 897 l 706 958 l 1064 958 l 1064 897 l 921 897 l 921 600 l 1064 600 l 1064 544 l 921 544 l 921 429 l 1064 429 l 1064 374 l 921 374 l 921 -46 l 299 728 l 299 61 l 442 61 l 442 0 l 83 0 l 83 61 l 226 61 l 226 374 l 83 374 "},"₧":{"ha":1032,"x_min":0,"x_max":0,"o":"m 83 692 l 226 692 l 226 897 l 83 897 l 83 958 l 464 958 b 861 692 685 958 846 874 l 1004 692 l 1004 636 l 861 636 b 546 385 846 483 688 385 l 439 431 b 732 636 626 431 719 513 l 353 636 l 353 61 l 538 61 l 538 0 l 83 0 l 83 61 l 226 61 l 226 636 l 83 636 m 353 692 l 732 692 b 469 897 721 833 615 897 l 353 897 "},"₱":{"ha":1024,"x_min":0,"x_max":0,"o":"m 83 611 l 226 611 l 226 726 l 83 726 l 83 782 l 226 782 l 226 897 l 83 897 l 83 958 l 464 958 b 839 782 644 958 785 901 l 996 782 l 996 726 l 856 726 b 863 661 860 706 863 685 b 857 611 863 644 861 626 l 996 611 l 996 556 l 838 556 b 546 385 786 450 661 385 l 439 431 b 708 556 582 431 669 478 l 353 556 l 353 61 l 538 61 l 538 0 l 83 0 l 83 61 l 226 61 l 226 556 l 83 556 m 353 782 l 708 782 b 469 897 667 861 579 897 l 353 897 m 733 667 b 728 726 733 689 732 708 l 353 726 l 353 611 l 728 611 b 733 667 732 629 733 647 "},"₽":{"ha":917,"x_min":0,"x_max":0,"o":"m 83 351 l 226 351 l 226 467 l 83 467 l 83 522 l 226 522 l 226 897 l 83 897 l 83 958 l 463 958 b 861 719 693 958 861 893 b 463 467 861 544 668 467 l 353 467 l 353 351 l 704 351 l 704 296 l 353 296 l 353 61 l 539 61 l 539 0 l 83 0 l 83 61 l 226 61 l 226 296 l 83 296 m 353 524 l 461 524 b 721 714 613 524 721 581 b 461 897 721 847 613 897 l 353 897 "},"₹":{"ha":857,"x_min":0,"x_max":0,"o":"m 244 508 b 504 707 396 508 504 574 b 503 732 504 715 504 724 l 69 732 l 69 788 l 488 788 b 244 903 453 865 361 903 l 69 903 l 69 958 l 801 958 l 774 903 l 496 903 b 622 788 551 878 599 839 l 801 788 l 774 732 l 638 732 b 639 713 639 726 639 719 b 372 465 639 576 522 494 l 768 0 l 607 0 l 225 453 l 69 453 l 69 508 "},"₺":{"ha":943,"x_min":0,"x_max":0,"o":"m 422 61 b 739 401 639 61 739 160 l 874 401 b 436 0 874 154 729 0 l 83 0 l 83 61 l 226 61 l 226 344 l 83 261 l 83 322 l 226 406 l 226 539 l 83 456 l 83 517 l 226 600 l 226 897 l 83 897 l 83 958 l 496 958 l 496 897 l 353 897 l 353 664 l 581 799 l 581 738 l 353 603 l 353 469 l 581 604 l 581 543 l 353 408 l 353 61 "},"₩":{"ha":1322,"x_min":0,"x_max":0,"o":"m 69 622 l 222 622 l 129 897 l 28 897 l 28 958 l 372 958 l 372 897 l 250 897 l 342 622 l 657 622 l 571 897 l 481 897 l 481 958 l 828 958 l 828 897 l 682 897 l 767 622 l 1035 622 l 1125 897 l 974 897 l 974 958 l 1294 958 l 1294 897 l 1193 897 l 1100 622 l 1246 622 l 1246 567 l 1081 567 l 869 -57 l 688 524 l 453 -57 l 242 567 l 69 567 m 639 567 l 360 567 l 488 183 m 1017 567 l 783 567 l 896 201 "},"⁰":{"ha":544,"x_min":0,"x_max":0,"o":"m 496 688 b 274 408 496 535 389 408 b 49 688 157 408 49 535 b 274 967 49 839 157 967 b 496 688 389 967 496 839 m 385 688 b 274 926 385 822 335 926 b 160 688 211 926 160 822 b 274 447 160 553 211 447 b 385 688 335 447 385 553 "},"¹":{"ha":454,"x_min":0,"x_max":0,"o":"m 35 833 l 288 967 l 288 461 l 400 461 l 400 415 l 65 415 l 65 461 l 179 461 l 179 833 "},"²":{"ha":464,"x_min":0,"x_max":0,"o":"m 18 415 b 286 767 179 574 286 669 b 181 876 286 832 246 876 b 40 793 118 876 79 843 b 236 967 69 901 143 967 b 385 817 328 967 385 900 b 171 524 385 711 283 618 l 171 511 l 438 511 l 376 415 "},"³":{"ha":429,"x_min":0,"x_max":0,"o":"m 172 442 b 292 554 225 453 292 488 b 96 671 292 629 215 671 b 246 819 192 722 246 761 b 168 888 246 864 213 888 b 51 826 124 888 81 860 b 236 967 78 897 140 967 b 356 865 311 967 356 919 b 236 736 356 803 306 761 l 236 726 b 389 600 321 714 389 676 b 132 408 389 496 257 408 b 36 472 75 408 36 435 b 82 529 36 496 53 521 l 172 442 "},"⁴":{"ha":531,"x_min":0,"x_max":0,"o":"m 188 415 l 188 461 l 265 461 l 265 569 l 14 569 l 364 967 l 364 621 l 517 621 l 471 569 l 364 569 l 364 461 l 440 461 l 440 415 m 265 796 l 113 621 l 265 621 "},"⁵":{"ha":435,"x_min":0,"x_max":0,"o":"m 140 772 b 382 618 269 783 382 733 b 131 408 382 497 257 408 b 32 475 72 408 32 436 b 78 535 32 500 49 525 l 171 442 b 289 565 226 451 289 488 b 83 686 289 654 211 701 l 146 958 l 383 958 l 344 858 l 158 858 l 140 772 "},"⁶":{"ha":494,"x_min":0,"x_max":0,"o":"m 251 408 b 50 632 138 408 50 510 b 450 967 50 806 222 958 b 172 711 303 904 207 821 l 185 711 b 283 749 210 732 240 749 b 440 592 375 749 440 679 b 251 408 440 493 358 408 m 157 611 b 261 447 157 521 199 447 b 344 554 314 447 344 490 b 218 699 344 638 289 699 b 165 686 197 699 179 693 b 157 611 160 663 157 638 "},"⁷":{"ha":476,"x_min":0,"x_max":0,"o":"m 122 417 l 361 858 l 31 858 l 88 958 l 449 958 l 199 417 "},"⁸":{"ha":479,"x_min":0,"x_max":0,"o":"m 433 567 b 238 408 433 489 346 408 b 46 544 132 408 46 471 b 164 669 46 604 93 642 l 164 685 b 65 814 111 717 65 754 b 242 967 65 893 140 967 b 414 836 339 967 414 911 b 311 728 414 782 372 747 l 311 711 b 433 567 375 676 433 636 m 154 849 b 281 728 154 794 215 763 b 335 836 317 757 335 789 b 242 931 335 893 299 931 b 154 849 189 931 154 896 m 131 556 b 238 444 131 490 178 444 b 336 538 299 444 336 488 b 193 668 336 599 264 631 b 131 556 150 638 131 607 "},"⁹":{"ha":494,"x_min":0,"x_max":0,"o":"m 243 967 b 444 743 358 967 444 865 b 44 408 444 571 274 417 b 322 665 192 471 288 554 l 311 665 b 211 626 285 643 254 626 b 54 783 121 626 54 696 b 243 967 54 882 138 967 m 150 821 b 278 676 150 738 206 676 b 329 689 297 676 315 682 b 338 765 335 714 338 739 b 233 928 338 856 296 928 b 150 821 182 928 150 885 "},"₀":{"ha":544,"x_min":0,"x_max":0,"o":"m 496 63 b 274 -217 496 -90 389 -217 b 49 63 157 -217 49 -90 b 274 342 49 214 157 342 b 496 63 389 342 496 214 m 385 63 b 274 301 385 197 335 301 b 160 63 211 301 160 197 b 274 -178 160 -72 211 -178 b 385 63 335 -178 385 -72 "},"₁":{"ha":454,"x_min":0,"x_max":0,"o":"m 35 208 l 288 342 l 288 -164 l 400 -164 l 400 -210 l 65 -210 l 65 -164 l 179 -164 l 179 208 "},"₂":{"ha":464,"x_min":0,"x_max":0,"o":"m 18 -210 b 286 142 179 -51 286 44 b 181 251 286 207 246 251 b 40 168 118 251 79 218 b 236 342 69 276 143 342 b 385 192 328 342 385 275 b 171 -101 385 86 283 -7 l 171 -114 l 438 -114 l 376 -210 "},"₃":{"ha":429,"x_min":0,"x_max":0,"o":"m 172 -183 b 292 -71 225 -172 292 -137 b 96 46 292 4 215 46 b 246 194 192 97 246 136 b 168 263 246 239 213 263 b 51 201 124 263 81 235 b 236 342 78 272 140 342 b 356 240 311 342 356 294 b 236 111 356 178 306 136 l 236 101 b 389 -25 321 89 389 51 b 132 -217 389 -129 257 -217 b 36 -153 75 -217 36 -190 b 82 -96 36 -129 53 -104 l 172 -183 "},"₄":{"ha":531,"x_min":0,"x_max":0,"o":"m 188 -210 l 188 -164 l 265 -164 l 265 -56 l 14 -56 l 364 342 l 364 -4 l 517 -4 l 471 -56 l 364 -56 l 364 -164 l 440 -164 l 440 -210 m 265 171 l 113 -4 l 265 -4 "},"₅":{"ha":435,"x_min":0,"x_max":0,"o":"m 140 147 b 382 -7 269 158 382 108 b 131 -217 382 -128 257 -217 b 32 -150 72 -217 32 -189 b 78 -90 32 -125 49 -100 l 171 -183 b 289 -60 226 -174 289 -137 b 83 61 289 29 211 76 l 146 333 l 383 333 l 344 233 l 158 233 l 140 147 "},"₆":{"ha":494,"x_min":0,"x_max":0,"o":"m 251 -217 b 50 7 138 -217 50 -115 b 450 342 50 181 222 333 b 172 86 303 279 207 196 l 185 86 b 283 124 210 107 240 124 b 440 -33 375 124 440 54 b 251 -217 440 -132 358 -217 m 157 -14 b 261 -178 157 -104 199 -178 b 344 -71 314 -178 344 -135 b 218 74 344 13 289 74 b 165 61 197 74 179 68 b 157 -14 160 38 157 13 "},"₇":{"ha":476,"x_min":0,"x_max":0,"o":"m 122 -208 l 361 233 l 31 233 l 88 333 l 449 333 l 199 -208 "},"₈":{"ha":479,"x_min":0,"x_max":0,"o":"m 433 -58 b 238 -217 433 -136 346 -217 b 46 -81 132 -217 46 -154 b 164 44 46 -21 93 17 l 164 60 b 65 189 111 92 65 129 b 242 342 65 268 140 342 b 414 211 339 342 414 286 b 311 103 414 157 372 122 l 311 86 b 433 -58 375 51 433 11 m 154 224 b 281 103 154 169 215 138 b 335 211 317 132 335 164 b 242 306 335 268 299 306 b 154 224 189 306 154 271 m 131 -69 b 238 -181 131 -135 178 -181 b 336 -87 299 -181 336 -137 b 193 43 336 -26 264 6 b 131 -69 150 13 131 -18 "},"₉":{"ha":494,"x_min":0,"x_max":0,"o":"m 243 342 b 444 118 358 342 444 240 b 44 -217 444 -54 274 -208 b 322 40 192 -154 288 -71 l 311 40 b 211 1 285 18 254 1 b 54 158 121 1 54 71 b 243 342 54 257 138 342 m 150 196 b 278 51 150 113 206 51 b 329 64 297 51 315 57 b 338 140 335 89 338 114 b 233 303 338 231 296 303 b 150 196 182 303 150 260 "},"⁄":{"ha":235,"x_min":0,"x_max":0,"o":"m -137 65 l -158 0 l -256 0 l 372 893 l 393 958 l 490 958 "},"½":{"ha":1108,"x_min":0,"x_max":0,"o":"m 35 833 l 288 967 l 288 461 l 400 461 l 400 415 l 65 415 l 65 461 l 179 461 l 179 833 m 310 65 l 289 0 l 192 0 l 819 893 l 840 958 l 938 958 m 663 0 b 931 351 824 158 931 254 b 825 461 931 417 890 461 b 685 378 763 461 724 428 b 881 551 714 486 788 551 b 1029 401 972 551 1029 485 b 815 108 1029 296 928 203 l 815 96 l 1082 96 l 1021 0 "},"¼":{"ha":1058,"x_min":0,"x_max":0,"o":"m 310 65 l 289 0 l 192 0 l 819 893 l 840 958 l 938 958 m 35 833 l 288 967 l 288 461 l 400 461 l 400 415 l 65 415 l 65 461 l 179 461 l 179 833 m 715 0 l 715 46 l 793 46 l 793 154 l 542 154 l 892 551 l 892 206 l 1044 206 l 999 154 l 892 154 l 892 46 l 968 46 l 968 0 m 793 381 l 640 206 l 793 206 "},"¾":{"ha":1015,"x_min":0,"x_max":0,"o":"m 672 0 l 672 46 l 750 46 l 750 154 l 499 154 l 849 551 l 849 206 l 1001 206 l 956 154 l 849 154 l 849 46 l 925 46 l 925 0 m 750 381 l 597 206 l 750 206 m 267 65 l 246 0 l 149 0 l 776 893 l 797 958 l 894 958 m 172 442 b 292 554 225 453 292 488 b 96 671 292 629 215 671 b 246 819 192 722 246 761 b 168 888 246 864 213 888 b 51 826 124 888 81 860 b 236 967 78 897 140 967 b 356 865 311 967 356 919 b 236 736 356 803 306 761 l 236 726 b 389 600 321 714 389 676 b 132 408 389 496 257 408 b 36 472 75 408 36 435 b 82 529 36 496 53 521 l 172 442 "},"⅓":{"ha":1058,"x_min":0,"x_max":0,"o":"m 310 65 l 289 0 l 192 0 l 819 893 l 840 958 l 938 958 m 35 833 l 288 967 l 288 461 l 400 461 l 400 415 l 65 415 l 65 461 l 179 461 l 179 833 m 801 26 b 921 139 854 38 921 72 b 725 256 921 214 844 256 b 875 404 821 307 875 346 b 797 472 875 449 842 472 b 681 411 753 472 710 444 b 865 551 707 482 769 551 b 985 450 940 551 985 504 b 865 321 985 388 935 346 l 865 311 b 1018 185 950 299 1018 261 b 761 -7 1018 81 886 -7 b 665 57 704 -7 665 19 b 711 114 665 81 682 106 l 801 26 "},"⅔":{"ha":1085,"x_min":0,"x_max":0,"o":"m 336 65 l 315 0 l 218 0 l 846 893 l 867 958 l 964 958 m 828 26 b 947 139 881 38 947 72 b 751 256 947 214 871 256 b 901 404 847 307 901 346 b 824 472 901 449 868 472 b 707 411 779 472 736 444 b 892 551 733 482 796 551 b 1011 450 967 551 1011 504 b 892 321 1011 388 961 346 l 892 311 b 1044 185 976 299 1044 261 b 788 -7 1044 81 913 -7 b 692 57 731 -7 692 19 b 738 114 692 81 708 106 l 828 26 m 18 415 b 286 767 179 574 286 669 b 181 876 286 832 246 876 b 40 793 118 876 79 843 b 236 967 69 901 143 967 b 385 817 328 967 385 900 b 171 524 385 711 283 618 l 171 511 l 438 511 l 376 415 "},"⅛":{"ha":1108,"x_min":0,"x_max":0,"o":"m 1063 151 b 867 -7 1063 74 975 -7 b 675 129 761 -7 675 56 b 793 254 675 189 722 226 l 793 269 b 694 399 740 301 694 339 b 871 551 694 478 769 551 b 1043 421 968 551 1043 496 b 940 313 1043 367 1001 332 l 940 296 b 1063 151 1004 261 1063 221 m 783 433 b 910 313 783 379 844 347 b 964 421 946 342 964 374 b 871 515 964 478 928 515 b 783 433 818 515 783 481 m 760 140 b 867 29 760 75 807 29 b 965 122 928 29 965 72 b 822 253 965 183 893 215 b 760 140 779 222 760 192 m 310 65 l 289 0 l 192 0 l 819 893 l 840 958 l 938 958 m 35 833 l 288 967 l 288 461 l 400 461 l 400 415 l 65 415 l 65 461 l 179 461 l 179 833 "},"⅜":{"ha":1065,"x_min":0,"x_max":0,"o":"m 1019 151 b 824 -7 1019 74 932 -7 b 632 129 718 -7 632 56 b 750 254 632 189 679 226 l 750 269 b 651 399 697 301 651 339 b 828 551 651 478 726 551 b 1000 421 925 551 1000 496 b 897 313 1000 367 958 332 l 897 296 b 1019 151 961 261 1019 221 m 740 433 b 867 313 740 379 801 347 b 921 421 903 342 921 374 b 828 515 921 478 885 515 b 740 433 775 515 740 481 m 717 140 b 824 29 717 75 764 29 b 922 122 885 29 922 72 b 779 253 922 183 850 215 b 717 140 736 222 717 192 m 267 65 l 246 0 l 149 0 l 776 893 l 797 958 l 894 958 m 172 442 b 292 554 225 453 292 488 b 96 671 292 629 215 671 b 246 819 192 722 246 761 b 168 888 246 864 213 888 b 51 826 124 888 81 860 b 236 967 78 897 140 967 b 356 865 311 967 356 919 b 236 736 356 803 306 761 l 236 726 b 389 600 321 714 389 676 b 132 408 389 496 257 408 b 36 472 75 408 36 435 b 82 529 36 496 53 521 l 172 442 "},"⅝":{"ha":1060,"x_min":0,"x_max":0,"o":"m 261 65 l 240 0 l 143 0 l 771 893 l 792 958 l 889 958 m 1014 151 b 818 -7 1014 74 926 -7 b 626 129 713 -7 626 56 b 744 254 626 189 674 226 l 744 269 b 646 399 692 301 646 339 b 822 551 646 478 721 551 b 994 421 919 551 994 496 b 892 313 994 367 953 332 l 892 296 b 1014 151 956 261 1014 221 m 735 433 b 861 313 735 379 796 347 b 915 421 897 342 915 374 b 822 515 915 478 879 515 b 735 433 769 515 735 481 m 711 140 b 818 29 711 75 758 29 b 917 122 879 29 917 72 b 774 253 917 183 844 215 b 711 140 731 222 711 192 m 140 772 b 382 618 269 783 382 733 b 131 408 382 497 257 408 b 32 475 72 408 32 436 b 78 535 32 500 49 525 l 171 442 b 289 565 226 451 289 488 b 83 686 289 654 211 701 l 146 958 l 383 958 l 344 858 l 158 858 l 140 772 "},"⅞":{"ha":1011,"x_min":0,"x_max":0,"o":"m 965 151 b 769 -7 965 74 878 -7 b 578 129 664 -7 578 56 b 696 254 578 189 625 226 l 696 269 b 597 399 643 301 597 339 b 774 551 597 478 672 551 b 946 421 871 551 946 496 b 843 313 946 367 904 332 l 843 296 b 965 151 907 261 965 221 m 686 433 b 813 313 686 379 747 347 b 867 421 849 342 867 374 b 774 515 867 478 831 515 b 686 433 721 515 686 481 m 663 140 b 769 29 663 75 710 29 b 868 122 831 29 868 72 b 725 253 868 183 796 215 b 663 140 682 222 663 192 m 213 65 l 192 0 l 94 0 l 722 893 l 743 958 l 840 958 m 122 417 l 361 858 l 31 858 l 88 958 l 449 958 l 199 417 "},"%":{"ha":968,"x_min":0,"x_max":0,"o":"m 253 575 b 56 774 144 575 56 664 b 253 972 56 883 144 972 b 447 774 358 972 447 883 b 253 575 447 664 358 575 m 221 65 l 200 0 l 92 0 l 746 893 l 767 958 l 875 958 m 253 643 b 378 774 322 643 378 701 b 253 906 378 846 322 906 b 125 774 182 906 125 846 b 253 643 125 701 182 643 m 718 383 b 913 185 824 383 913 294 b 718 -14 913 75 824 -14 b 521 185 610 -14 521 75 b 718 383 521 294 610 383 m 718 317 b 590 185 647 317 590 257 b 718 54 590 113 647 54 b 843 185 788 54 843 113 b 718 317 843 257 788 317 "},"+":{"ha":833,"x_min":0,"x_max":0,"o":"m 61 508 l 381 508 l 381 828 l 453 828 l 453 508 l 772 508 l 772 435 l 453 435 l 453 115 l 381 115 l 381 435 l 61 435 "},"−":{"ha":833,"x_min":0,"x_max":0,"o":"m 61 508 l 772 508 l 772 435 l 61 435 "},"×":{"ha":833,"x_min":0,"x_max":0,"o":"m 361 449 l 111 699 l 167 754 l 417 504 l 667 754 l 722 699 l 472 449 l 722 199 l 667 143 l 417 393 l 167 143 l 111 199 "},"÷":{"ha":833,"x_min":0,"x_max":0,"o":"m 419 668 b 329 758 369 668 329 708 b 419 849 329 808 369 849 b 508 758 468 849 508 808 b 419 668 508 708 468 668 m 61 508 l 772 508 l 772 435 l 61 435 m 419 94 b 329 185 369 94 329 135 b 419 275 329 235 369 275 b 508 185 468 275 508 235 b 419 94 508 135 468 94 "},"=":{"ha":833,"x_min":0,"x_max":0,"o":"m 61 649 l 772 649 l 772 575 l 61 575 m 61 365 l 772 365 l 772 292 l 61 292 "},"<":{"ha":832,"x_min":0,"x_max":0,"o":"m 106 507 l 726 815 l 726 726 l 193 468 l 726 213 l 726 122 l 106 433 "},">":{"ha":832,"x_min":0,"x_max":0,"o":"m 106 122 l 106 213 l 639 468 l 106 726 l 106 815 l 726 507 l 726 433 "},"↑":{"ha":925,"x_min":0,"x_max":0,"o":"m 842 564 l 463 1025 l 83 564 l 431 760 l 431 -28 l 494 -28 l 494 760 "},"↓":{"ha":925,"x_min":0,"x_max":0,"o":"m 842 419 l 463 -42 l 83 419 l 431 224 l 431 1011 l 494 1011 l 494 224 "},"←":{"ha":1219,"x_min":0,"x_max":0,"o":"m 544 19 l 83 399 l 544 778 l 349 431 l 1136 431 l 1136 367 l 349 367 "},"→":{"ha":1219,"x_min":0,"x_max":0,"o":"m 675 19 l 1136 399 l 675 778 l 871 431 l 83 431 l 83 367 l 871 367 "},"↕":{"ha":925,"x_min":0,"x_max":0,"o":"m 842 281 l 463 -181 l 83 281 l 431 85 l 431 818 l 83 622 l 463 1083 l 842 622 l 494 818 l 494 85 "},"↔":{"ha":1611,"x_min":0,"x_max":0,"o":"m 544 19 l 83 399 l 544 778 l 349 431 l 1263 431 l 1067 778 l 1528 399 l 1067 19 l 1263 367 l 349 367 "},"↖":{"ha":1153,"x_min":0,"x_max":0,"o":"m 1025 -14 l 1069 31 l 293 807 l 663 924 l 83 972 l 132 393 l 249 763 "},"↗":{"ha":1153,"x_min":0,"x_max":0,"o":"m 128 -14 l 83 31 l 860 807 l 490 924 l 1069 972 l 1021 393 l 904 763 "},"↘":{"ha":1153,"x_min":0,"x_max":0,"o":"m 128 972 l 83 928 l 860 151 l 490 35 l 1069 -14 l 1021 565 l 904 196 "},"↙":{"ha":1153,"x_min":0,"x_max":0,"o":"m 1025 972 l 1069 928 l 293 151 l 663 35 l 83 -14 l 132 565 l 249 196 "},"́":{"ha":0,"x_min":0,"x_max":0,"o":"m -121 683 l -18 1049 l 121 1049 "},"̆":{"ha":0,"x_min":0,"x_max":0,"o":"m 0 803 b 168 1067 82 803 131 904 b 0 711 196 883 125 711 b -168 1067 -125 711 -196 883 b 0 803 -131 904 -82 803 "},"̌":{"ha":0,"x_min":0,"x_max":0,"o":"m 186 1088 l 47 722 l -47 722 l -186 1088 l 0 825 "},"̧":{"ha":0,"x_min":0,"x_max":0,"o":"m -62 -371 b -142 -315 -111 -371 -142 -347 b -78 -257 -142 -281 -112 -257 l -21 -337 b 65 -247 17 -331 65 -292 b -75 -144 65 -196 1 -164 l 26 25 l 17 -79 b 143 -210 81 -107 143 -139 b -62 -371 143 -292 24 -371 "},"̂":{"ha":0,"x_min":0,"x_max":0,"o":"m -186 683 l -47 1049 l 47 1049 l 186 683 l 0 946 "},"̦":{"ha":0,"x_min":0,"x_max":0,"o":"m -74 -164 b 11 -90 -74 -126 -42 -90 b 110 -193 74 -90 110 -139 b -108 -372 110 -290 4 -372 b 32 -219 -29 -333 25 -271 l -46 -219 b -74 -164 -64 -208 -74 -187 "},"̒":{"ha":0,"x_min":0,"x_max":0,"o":"m 75 819 b -10 746 75 782 43 746 b -108 849 -72 746 -108 794 b 110 1028 -108 946 -3 1028 b -31 875 31 989 -24 926 l 47 875 b 75 819 65 864 75 843 "},"̈":{"ha":0,"x_min":0,"x_max":0,"o":"m 128 804 b 50 881 83 804 50 838 b 128 957 50 924 83 957 b 207 881 172 957 207 924 b 128 804 207 838 172 804 m -129 804 b -207 881 -174 804 -207 838 b -129 957 -207 924 -174 957 b -50 881 -85 957 -50 924 b -129 804 -50 838 -85 804 "},"̇":{"ha":0,"x_min":0,"x_max":0,"o":"m 0 813 b -85 896 -47 813 -85 850 b 0 979 -85 942 -47 979 b 85 896 47 979 85 942 b 0 813 85 850 47 813 "},"̀":{"ha":0,"x_min":0,"x_max":0,"o":"m 18 1049 l 121 683 l -121 1049 "},"̋":{"ha":0,"x_min":0,"x_max":0,"o":"m -211 683 l -108 1049 l 17 1049 m -17 683 l 86 1049 l 211 1049 "},"̄":{"ha":0,"x_min":0,"x_max":0,"o":"m 203 886 l 143 811 l -203 811 l -143 886 "},"̨":{"ha":0,"x_min":0,"x_max":0,"o":"m 126 21 b -40 -218 43 -39 -40 -142 b 54 -297 -40 -272 -11 -297 l 117 -297 b -17 -371 69 -342 33 -371 b -125 -262 -76 -371 -125 -333 b 117 38 -125 -167 -3 -35 "},"̊":{"ha":0,"x_min":0,"x_max":0,"o":"m 0 1015 b 139 876 76 1015 139 953 b 0 739 139 801 76 739 b -139 876 -76 739 -139 801 b 0 1015 -139 953 -76 1015 m 0 963 b -86 876 -49 963 -86 925 b 0 792 -86 829 -49 792 b 86 876 49 792 86 829 b 0 963 86 925 49 963 "},"̃":{"ha":0,"x_min":0,"x_max":0,"o":"m -74 858 b -247 732 -118 858 -182 801 l -143 960 l 72 894 b 246 1021 117 894 181 951 l 142 793 "}}}
